<?xml version="1.0" encoding="UTF-8"?>
<svg id="Artwork" xmlns="http://www.w3.org/2000/svg" viewBox="0 0 468 223.76">
  <defs>
    <style>
      .cls-1 {
        fill: #8ce61e;
      }

      .cls-2 {
        fill: #232878;
      }
    </style>
  </defs>
  <path class="cls-1" d="m174.81,28.88l3.5,3.3c7.65,7.83,30.32,24.56,57.12,18.62,31.55-6.99,52.89-35.21,53.02-35.22-.13-.04-12.3,4.78-43.95-8.53-37.33-15.7-53.15-2.76-68.66,14.75l-.83.85-2.88,3.36,2.69,2.85Z"/>
  <path class="cls-2" d="m160.76,24.45h0v149.97h-17.43c-8.55-.56-15.36-7.43-15.84-15.96v-.06s0-150.87,0-150.87h16.7c9.28.25,16.55,7.68,16.57,16.92Zm-44.54,57.63c-.17-8.69-6.77-15.79-15.47-16.56h-17.92s0,10.17,0,10.17c-7.18-7.92-16.72-11.78-29.07-11.78-13.93,0-26.16,5.05-36.33,15.02C6.03,89.91,0,103.93,0,119.46c0,16.93,6.59,31.71,19.05,42.75,9.5,8.5,20.98,12.81,34.12,12.81s22.28-3.5,31.1-11.64c2.43,6.5,8.73,10.98,15.79,11.05h16.22v-92.34h-.06Zm-39.28,55.34c-4.49,4.59-10.46,7.11-16.81,7.11-15.45,0-26.66-10.63-26.66-25.27s11.43-25.46,25.47-25.46,25.08,11.12,25.08,25.87c0,6.79-2.52,13.09-7.09,17.76Zm373.1-58.9c-11.11-10.49-24.68-15.81-40.33-15.81s-29.13,6.04-40.12,17.02c-10.72,10.72-16.62,24.9-16.62,39.93s5.53,29.26,16,40.12c11.14,11.73,24.6,17.44,41.15,17.44s30.02-5.73,41.32-17.02c10.9-10.91,16.43-24.68,16.43-40.94,0-15.15-6.5-29.99-17.83-40.73Zm-39.71,66.81c-13.39,0-24.28-11.34-24.28-25.27s10.89-25.47,24.28-25.47,24.27,11.42,24.27,25.47-10.89,25.27-24.27,25.27Zm-44.86-70.5c-5.66,5.65-10.13,12.14-13.3,19.31l-.34.77-.82-.19c-6.01-1.4-10.84-.7-14.37,2.1-4.96,3.93-7.47,11.89-7.47,23.64v53.97h-18.04c-8.43-.56-15.23-7.32-15.83-15.73v-.07s0-93.11,0-93.11h15.43c7.49,0,14.11,4.93,16.26,12.03,4.83-7.43,17.71-20.06,46.9-11.86l2.04.57-1.73,1.22c-3.15,2.23-6.09,4.71-8.74,7.36Zm-38.97,3.33h.1s.02-.02.03-.04l-.13.04Zm-57.09-.86c-9.5-8.49-20.98-12.79-34.12-12.79s-22.86,3.74-31.6,12.42c-2.34-6.77-8.8-11.41-16.06-11.42h-15.46v141.7c.2,8.75,7.2,16.02,15.94,16.56h17.53s0-59.92,0-59.92c7.16,7.92,16.69,11.78,29.04,11.78,14.08,0,26.31-4.99,36.35-14.82,11.4-11,17.42-25.09,17.42-40.74,0-16.92-6.59-31.71-19.05-42.77Zm-40.08,68.43c-14.18,0-24.87-11.12-24.87-25.87,0-13.95,10.49-24.87,23.87-24.87,15.45,0,26.66,10.63,26.66,25.27s-11.51,25.47-25.66,25.47Zm231.96-83.62h-.04c-3.82,0-6.86,2.95-6.86,6.68s3.04,6.77,6.86,6.77,6.76-2.95,6.76-6.77-2.93-6.68-6.72-6.68Zm0,12.23c-3.12,0-5.42-2.44-5.42-5.55s2.31-5.5,5.34-5.5h.05c3.02,0,5.29,2.48,5.29,5.54s-2.26,5.56-5.25,5.51Zm2.41-3.7c-.2-.85-.51-1.37-1.06-1.6v-.08c.68-.24,1.24-.74,1.24-1.53,0-.62-.26-1.14-.65-1.4-.39-.32-.95-.51-2.04-.51-.88,0-1.59.08-2.26.19v6.55h1.21v-2.74h.79c.89,0,1.34.31,1.48,1.05.2.87.35,1.46.55,1.69h1.25c-.16-.23-.33-.62-.51-1.61Zm-2.74-2.08h-.82v-2.04c.2-.03.47-.07.94-.07,1.12,0,1.56.46,1.56,1.09,0,.74-.82,1.02-1.68,1.02Z"/>
</svg>