<svg xmlns="http://www.w3.org/2000/svg" width="295.011" height="64.823" viewBox="0 0 295.011 64.823"><g id="LOGO_PAPETTES" data-name="LOGO PAPETTES" transform="translate(-242.674 -188.64)"><g id="Groupe_522" data-name="Groupe 522" transform="translate(269.513 188.64)"><g id="Groupe_514" data-name="Groupe 514" transform="translate(0)"><path id="Tracé_281" data-name="Tracé 281" d="M299.682,237.764a11.046,11.046,0,0,0,2.11-1.353,21.367,21.367,0,0,0,5.546-6.535,16.727,16.727,0,0,0,1.99-6.722,13.7,13.7,0,0,0-4.768-11.246,17.808,17.808,0,0,0-6.271-3.378,23.93,23.93,0,0,0-8.671-.927c-1.421.135-2.855.255-4.214.36a22.579,22.579,0,0,0-3,.4,7.492,7.492,0,0,0-2.57,1.413,4.419,4.419,0,0,0-1.359,2.549c0,7.746.055,15.547.159,23.19.105,7.7.159,15.586.159,23.433a5.07,5.07,0,0,0,1.573,3.348,4.038,4.038,0,0,0,2.674,1.031,3.565,3.565,0,0,0,2.473-1.158,5.5,5.5,0,0,0,1.348-3.663v-7.9c0-2.616-.035-5.278-.105-7.912l-.06-2.294h2.36a19.449,19.449,0,0,0,3.7-.37,32.149,32.149,0,0,0,3.77-.964A20.772,20.772,0,0,0,299.682,237.764Zm-9.722-5.432-.67.076-.606-.288a5.288,5.288,0,0,1-.654-.365c-.01-.006-.061-.033-.118-.061l-1.216-.6-.048-1.324c-.071-2-.107-4.012-.107-5.978v-7.984l2.138-.146q1.484-.1,2.917-.207c1.029-.072,2.07-.109,3.1-.109h.27l.264.061a6.792,6.792,0,0,1,5.7,7.234,9.347,9.347,0,0,1-1.372,4.191,11.283,11.283,0,0,1-2.929,3.289,8.589,8.589,0,0,1-3.581,1.77C292.254,232.043,291.241,232.187,289.961,232.332Z" transform="translate(-274.117 -203.194)" fill="#fff"/><path id="Tracé_282" data-name="Tracé 282" d="M282.368,267.042a8.374,8.374,0,0,1-5.394-2.008,9.221,9.221,0,0,1-3.137-6.118,4.339,4.339,0,0,1-.044-.61c0-7.8-.054-15.664-.159-23.373-.105-7.679-.159-15.5-.16-23.249a4.385,4.385,0,0,1,.1-.947,8.619,8.619,0,0,1,2.86-4.979,11.818,11.818,0,0,1,4.076-2.211c.1-.031.21-.058.317-.082a26.7,26.7,0,0,1,3.6-.487c1.332-.1,2.74-.221,4.135-.353.052-.005.1-.01.156-.012a28.26,28.26,0,0,1,10.251,1.126,22.111,22.111,0,0,1,7.8,4.233,18.064,18.064,0,0,1,6.267,14.788,21.054,21.054,0,0,1-2.475,8.485,25.708,25.708,0,0,1-6.612,7.864,15.253,15.253,0,0,1-2.9,1.881h0a25,25,0,0,1-3.822,1.578,36.216,36.216,0,0,1-4.285,1.1c-.814.159-1.624.275-2.424.35.039,1.99.059,3.983.059,5.95v7.9c0,.1,0,.2-.01.3a9.643,9.643,0,0,1-2.656,6.489,7.877,7.877,0,0,1-5.409,2.392ZM282.32,232.7q.013,1.059.028,2.114.017,1.3.033,2.6a4.284,4.284,0,0,1,.551-.694,4.355,4.355,0,0,1,3.121-1.318h.091a9.323,9.323,0,0,1-.912-.5l-1.094-.534A4.355,4.355,0,0,1,282.32,232.7Zm7.937-13.463v3.918c0,1.329.017,2.675.051,4.021.5-.069.935-.139,1.3-.207a4.454,4.454,0,0,0,1.734-.947,7.01,7.01,0,0,0,1.833-2.059,5.068,5.068,0,0,0,.767-2.249,2.657,2.657,0,0,0-.46-1.682,2.764,2.764,0,0,0-1.668-.966c-.85.005-1.707.038-2.55.1Zm-8.068-6.912v.563a4.357,4.357,0,0,1,.815-.971l-.12.022A3.129,3.129,0,0,0,282.188,212.324Z" transform="translate(-273.474 -202.551)" fill="#fff"/></g><g id="Groupe_515" data-name="Groupe 515" transform="translate(26.171 15.781)"><path id="Tracé_283" data-name="Tracé 283" d="M333.661,262.528a5.7,5.7,0,0,0,.778-3.243c0-.223.013-.755.042-1.593q.039-1.18.039-2.643t-.04-2.98c-.026-.981-.065-1.79-.115-2.4-.109-1.561-.27-3.387-.481-5.45-.209-2.033-.526-4.123-.944-6.21a39.775,39.775,0,0,0-1.622-5.833,12.444,12.444,0,0,0-2.393-4.143,7.633,7.633,0,0,0-2.156-1.594,7.356,7.356,0,0,0-2.54-.751,5.687,5.687,0,0,0-2.477.315,4.91,4.91,0,0,0-2.091,1.444,7.952,7.952,0,0,0-1.4,2.6q-.689,1.984-1.173,3.358c-.494,1.318-.871,2.324-1.138,3.048-.254.682-.472,1.327-.653,1.92-.193.629-.409,1.323-.654,2.083s-.611,1.85-1.1,3.263c-.957,2.925-1.91,5.879-2.849,8.832a76.382,76.382,0,0,0-2.191,8.616,4.478,4.478,0,0,0,1.035,2.328,2.8,2.8,0,0,0,1.665.959,2.733,2.733,0,0,0,1.832-.48,4.152,4.152,0,0,0,1.537-2.109c.207-1.027.433-2.047.673-3.033.251-1.03.546-2.085.878-3.138l.384-1.218h1.06a2.3,2.3,0,0,1,.621-.081l.159.008c.514.046.865.073,1.052.073a5.3,5.3,0,0,1,.846.063c.152.026.313.048.5.071.209.027.613.064,1.217.113l.091.01c.742.1,1.472.163,2.168.187a10.631,10.631,0,0,0,1.951-.1l1.989-.285v2.01c0,1.143.039,2.312.118,3.473a11.282,11.282,0,0,0,.54,2.819,2.366,2.366,0,0,0,1.284,1.059,2.825,2.825,0,0,0,1.869.025A3.358,3.358,0,0,0,333.661,262.528Zm-6.848-14.094a3.746,3.746,0,0,1-1.2.171l-.336-.032a7.236,7.236,0,0,0-1.117.028c-.429.03-.813.045-1.156.045a8.551,8.551,0,0,1-.882-.041,6.1,6.1,0,0,1-.836-.059c-.206-.028-.468-.074-.778-.137l-1.928-.391.62-1.867c.091-.274.16-.5.206-.684l.042-.14c.533-1.548,1.043-3.116,1.514-4.66.5-1.627,1.052-3.251,1.651-4.829l1.868-4.921,1.438,5.064c.228.8.426,1.583.589,2.316s.33,1.556.5,2.436c.164.983.334,1.92.519,2.841.2.988.355,2,.467,3.015l.157,1.4Z" transform="translate(-304.15 -221.303)" fill="#fff"/><path id="Tracé_284" data-name="Tracé 284" d="M310.873,268.191a6.842,6.842,0,0,1-.892-.06,7.076,7.076,0,0,1-4.26-2.3,8.731,8.731,0,0,1-2.146-4.545,4.357,4.357,0,0,1,.013-1.591,80.7,80.7,0,0,1,2.316-9.109c.942-2.964,1.9-5.929,2.861-8.865.5-1.446.856-2.5,1.094-3.242s.45-1.415.636-2.025c.2-.674.452-1.4.735-2.165.266-.72.644-1.732,1.141-3.058.294-.833.681-1.945,1.137-3.258a12.216,12.216,0,0,1,2.221-4.031,9.3,9.3,0,0,1,3.943-2.7,10.1,10.1,0,0,1,4.34-.539,11.687,11.687,0,0,1,4.061,1.189,11.952,11.952,0,0,1,3.392,2.515,16.8,16.8,0,0,1,3.3,5.621,44.2,44.2,0,0,1,1.8,6.475c.444,2.226.783,4.452,1.006,6.621.215,2.107.382,3.988.493,5.592.053.648.1,1.536.125,2.59s.041,2.081.041,3.1-.014,1.958-.042,2.787c-.026.764-.038,1.246-.038,1.449a9.876,9.876,0,0,1-1.554,5.722v0a7.636,7.636,0,0,1-3.921,3.054,7.227,7.227,0,0,1-4.656-.058,6.68,6.68,0,0,1-3.565-2.906,4.342,4.342,0,0,1-.411-.887,15.6,15.6,0,0,1-.755-3.907q-.035-.518-.06-1.038c-.745-.032-1.529-.1-2.323-.206-.676-.057-1.129-.1-1.366-.131-.152-.019-.3-.039-.447-.061q-.135.5-.254.993c-.227.933-.441,1.9-.635,2.863a4.381,4.381,0,0,1-.211.718,8.356,8.356,0,0,1-3.3,4.232A7.18,7.18,0,0,1,310.873,268.191Zm22.145-6.306h0Zm-23.288-1.938Zm16.441-12.156h0Z" transform="translate(-303.507 -220.661)" fill="#fff"/></g><g id="Groupe_516" data-name="Groupe 516" transform="translate(58.915 3.749)"><path id="Tracé_285" data-name="Tracé 285" d="M365.437,240.1a10.088,10.088,0,0,0,1.927-1.267,19.833,19.833,0,0,0,5.059-6.108,15.92,15.92,0,0,0,1.818-6.287,13.156,13.156,0,0,0-.965-5.77,12.783,12.783,0,0,0-3.386-4.745,16.11,16.11,0,0,0-5.723-3.158,21.28,21.28,0,0,0-7.912-.866c-1.3.125-2.605.238-3.846.335a20.337,20.337,0,0,0-2.74.374,6.817,6.817,0,0,0-2.345,1.323,4.163,4.163,0,0,0-1.24,2.382c0,7.243.05,14.538.146,21.684.1,7.2.145,14.573.146,21.911a4.782,4.782,0,0,0,1.435,3.131,3.633,3.633,0,0,0,2.44.964,3.22,3.22,0,0,0,2.256-1.082,5.228,5.228,0,0,0,1.232-3.427v-7.386c0-2.485-.033-4.974-.1-7.4l-.057-2.146h2.156a17.407,17.407,0,0,0,3.378-.347,28.839,28.839,0,0,0,3.44-.9A18.685,18.685,0,0,0,365.437,240.1Zm-8.871-5.079-.607.071-.551-.266a4.754,4.754,0,0,1-.607-.347c-.01-.007-.055-.03-.1-.055l-1.109-.557-.044-1.237c-.064-1.847-.1-3.728-.1-5.59v-7.464l1.951-.138q1.354-.1,2.661-.193c.94-.069,1.891-.1,2.83-.1h.247l.24.057a6.428,6.428,0,0,1,4.153,2.709,6.664,6.664,0,0,1,1.047,4.055,8.9,8.9,0,0,1-1.252,3.921,10.486,10.486,0,0,1-2.67,3.073,7.782,7.782,0,0,1-3.27,1.656C358.655,234.754,357.731,234.889,356.566,235.025Z" transform="translate(-341.726 -207.495)" fill="#fff"/><path id="Tracé_286" data-name="Tracé 286" d="M349.6,267.72a7.968,7.968,0,0,1-5.226-1.977,8.939,8.939,0,0,1-2.957-5.879,4.384,4.384,0,0,1-.041-.6c0-7.288-.05-14.64-.146-21.852-.1-7.186-.146-14.5-.146-21.742a4.392,4.392,0,0,1,.1-.924,8.352,8.352,0,0,1,2.7-4.8,11.143,11.143,0,0,1,3.863-2.145c.109-.033.219-.063.33-.088a24.647,24.647,0,0,1,3.343-.464c1.219-.095,2.5-.206,3.771-.329.051-.005.1-.009.153-.011a25.6,25.6,0,0,1,9.534,1.074,20.428,20.428,0,0,1,7.256,4.038,17.086,17.086,0,0,1,4.527,6.35,17.475,17.475,0,0,1,1.284,7.668,20.218,20.218,0,0,1-2.284,8.019,24.174,24.174,0,0,1-6.1,7.438,14.239,14.239,0,0,1-2.72,1.808h0a22.922,22.922,0,0,1-3.557,1.508,33.3,33.3,0,0,1-3.963,1.039c-.642.128-1.284.228-1.919.3.032,1.755.049,3.536.049,5.317v7.386c0,.1,0,.2-.01.292a9.372,9.372,0,0,1-2.5,6.221,7.516,7.516,0,0,1-5.224,2.352Zm.333-31.346c0,.309.008.618.011.926q.01.722.019,1.445a4.351,4.351,0,0,1,2.084-1.084l-.073-.045-.983-.494A4.344,4.344,0,0,1,349.931,236.374Zm7.23-13.381V226.4c0,1.135.012,2.278.037,3.417q.4-.063.721-.125a3.69,3.69,0,0,0,1.407-.808,6.185,6.185,0,0,0,1.589-1.833,4.615,4.615,0,0,0,.67-2.015,2.291,2.291,0,0,0-.384-1.444,2.1,2.1,0,0,0-1.239-.734c-.738.007-1.487.037-2.233.092Z" transform="translate(-341.083 -206.852)" fill="#fff"/></g><g id="Groupe_517" data-name="Groupe 517" transform="translate(92.164 13.287)"><path id="Tracé_287" data-name="Tracé 287" d="M404.958,223.588c-2.857-.107-5.711-.253-8.49-.434-2.825-.182-5.7-.3-8.535-.355a4.379,4.379,0,0,0-2.2.589,3.442,3.442,0,0,0-1.192,1.233,2.587,2.587,0,0,0-.293,1.412,2.365,2.365,0,0,0,.528,1.335l.341.437.021.552c.21,5.452.667,10.939,1.359,16.306.7,5.466,1.141,11.06,1.3,16.627v.05a2.185,2.185,0,0,0,.377,1.361l.166.266a2.863,2.863,0,0,0,.93,1.112,2.934,2.934,0,0,0,1.216.511,2.412,2.412,0,0,0,1.15-.093,2.816,2.816,0,0,0,1.094-.7l.237-.234.307-.131c1.913-.812,3.886-1.556,5.862-2.208a27.13,27.13,0,0,1,6.285-1.274,3.8,3.8,0,0,0,2.519-1.354,2.932,2.932,0,0,0,.624-2.083,2.886,2.886,0,0,0-1.1-1.854,4.027,4.027,0,0,0-2.91-.7,28.819,28.819,0,0,0-4.355.639,30.5,30.5,0,0,0-4.308,1.321l-2.1.818-.268-2.22c-.112-.936-.2-1.885-.252-2.821-.051-.861-.129-1.742-.233-2.615l-.2-1.654,1.663-.253a20.547,20.547,0,0,1,2.293-.219q.965-.037,2-.108a4.522,4.522,0,0,0,2.389-1.2,2.565,2.565,0,0,0,.76-1.684,2.914,2.914,0,0,0-.667-1.841,4.121,4.121,0,0,0-2.048-1.324l-2.545.142c-.9.051-1.806.129-2.678.23l-1.742.2-.193-1.725c-.323-2.889-.571-5.824-.734-8.724l-.108-1.925,1.943.105q3,.162,5.914.361c1.82.125,3.694.192,5.576.2a4.467,4.467,0,0,0,2.329-1.19,2.569,2.569,0,0,0,.76-1.685,2.909,2.909,0,0,0-.666-1.84A4.181,4.181,0,0,0,404.958,223.588Z" transform="translate(-379.881 -218.442)" fill="#fff"/><path id="Tracé_288" data-name="Tracé 288" d="M390.237,268.335a6.894,6.894,0,0,1-1.066-.084,7.29,7.29,0,0,1-3.014-1.226,7.172,7.172,0,0,1-2.244-2.536l-.007-.012a6.5,6.5,0,0,1-1.108-3.78c-.157-5.348-.585-10.8-1.269-16.121-.676-5.248-1.134-10.607-1.36-15.941a6.583,6.583,0,0,1-.915-2.965,6.921,6.921,0,0,1,.782-3.715,7.707,7.707,0,0,1,2.653-2.847,8.62,8.62,0,0,1,4.392-1.305c.1,0,.2-.006.292,0,2.91.054,5.849.177,8.734.363,2.755.18,5.571.323,8.372.428a4.308,4.308,0,0,1,1.179.208,8.41,8.41,0,0,1,4.266,2.878,7.189,7.189,0,0,1,1.537,4.567,6.9,6.9,0,0,1-1.9,4.516A8.685,8.685,0,0,1,405,233.252a4.346,4.346,0,0,1-.989.114h-.008c-1.978,0-3.954-.072-5.87-.206q-1.44-.1-2.9-.187.113,1.491.255,2.985l.3-.018,2.552-.142a4.365,4.365,0,0,1,1.63.22,8.354,8.354,0,0,1,4.144,2.837,7.2,7.2,0,0,1,1.539,4.57,6.9,6.9,0,0,1-1.9,4.512,7.409,7.409,0,0,1-1.316,1.131c.391-.04.782-.075,1.173-.1a8.2,8.2,0,0,1,6.04,1.737,7.026,7.026,0,0,1,1.2,9.763,8.008,8.008,0,0,1-5.238,3.114,4.508,4.508,0,0,1-.483.067,22.779,22.779,0,0,0-5.275,1.068c-1.721.568-3.439,1.21-5.115,1.908a7,7,0,0,1-2.393,1.369A6.7,6.7,0,0,1,390.237,268.335Zm1.274-7.726v.013A.073.073,0,0,0,391.511,260.609ZM403.4,224.646Zm-15.839-.6,0,0Z" transform="translate(-379.238 -217.799)" fill="#fff"/></g><g id="Groupe_518" data-name="Groupe 518" transform="translate(112.932 3.495)"><path id="Tracé_289" data-name="Tracé 289" d="M449.7,215.3a3.383,3.383,0,0,0-.8-2.168,4.946,4.946,0,0,0-2.469-1.564c-3.1.124-5.973.306-8.559.542q-4.089.375-8.034.8-3.968.424-8.076.847c-2.8.289-5.9.467-9.213.529a5.267,5.267,0,0,0-3.4,1.192,3.09,3.09,0,0,0-1.08,2.189,3.434,3.434,0,0,0,.962,2.359,4.823,4.823,0,0,0,3.124,1.39c1.1,0,1.962-.03,2.575-.085q1.1-.1,2.057-.146c.55-.028,1.157-.086,1.81-.173q1.088-.144,2.962-.336l2.514-.259-.215,2.452a80.2,80.2,0,0,0-.282,8.674c.063,2.934.176,5.935.336,8.921q.24,4.507.53,8.962c.191,2.951.322,5.964.388,8.96a4.625,4.625,0,0,0,1.43,3.064,3.7,3.7,0,0,0,2.426.937,3.244,3.244,0,0,0,2.247-1.054,5,5,0,0,0,1.222-3.309c-.065-2.949-.193-5.962-.381-8.957q-.291-4.617-.533-9.193c-.162-3.061-.261-6.16-.292-9.208a79.523,79.523,0,0,1,.445-9.309l.179-1.662,1.709-.151c4.2-.372,8.465-.657,12.667-.845a5.429,5.429,0,0,0,2.836-1.413A3,3,0,0,0,449.7,215.3Z" transform="translate(-403.714 -207.204)" fill="#fff"/><path id="Tracé_290" data-name="Tracé 290" d="M428.079,266.09a8.04,8.04,0,0,1-5.214-1.917,8.785,8.785,0,0,1-2.991-5.84,4.423,4.423,0,0,1-.041-.5c-.065-2.934-.193-5.886-.379-8.774q-.293-4.48-.533-9.011c-.164-3.033-.279-6.082-.341-9.06-.045-2.1-.012-4.222.1-6.323l-.148.019c-.773.1-1.5.171-2.161.2-.583.03-1.217.077-1.9.136-.736.065-1.7.1-2.945.1a2.835,2.835,0,0,1-.586-.038,8.978,8.978,0,0,1-5.855-2.871,7.748,7.748,0,0,1-2.011-5.3,7.371,7.371,0,0,1,2.392-5.2,9.367,9.367,0,0,1,6.174-2.423c.061,0,.122-.007.184-.008,3.2-.06,6.177-.23,8.846-.506q4.106-.421,8.061-.844c2.582-.277,5.308-.547,8.1-.8,2.669-.243,5.624-.43,8.783-.558a4.3,4.3,0,0,1,1.533.214,9.177,9.177,0,0,1,4.572,3.061,7.657,7.657,0,0,1,1.691,4.929v.006a7.316,7.316,0,0,1-2.072,4.825,9.656,9.656,0,0,1-5.067,2.7,4.449,4.449,0,0,1-.766.1c-3.508.157-7.065.383-10.6.672-.186,2.287-.267,4.6-.241,6.895.031,3,.127,6.032.286,9.025q.239,4.554.532,9.148c.191,3.069.322,6.143.388,9.137,0,.133,0,.267-.01.4a9.141,9.141,0,0,1-2.524,6.122,7.556,7.556,0,0,1-5.185,2.291Zm-1.36-49.188q.135.156.254.322.086-.19.19-.368Zm-15.311-.617Zm37.645-1.633h0Z" transform="translate(-403.071 -206.561)" fill="#fff"/></g><g id="Groupe_519" data-name="Groupe 519" transform="translate(143.221 15.333)"><path id="Tracé_291" data-name="Tracé 291" d="M474.763,228.088a2.707,2.707,0,0,0-.613-1.708,3.791,3.791,0,0,0-1.894-1.233c-2.375.1-4.582.242-6.566.428q-3.137.3-6.163.627-3.044.333-6.2.667c-2.148.227-4.526.368-7.069.417a3.976,3.976,0,0,0-2.6.939,2.465,2.465,0,0,0-.829,1.725,2.754,2.754,0,0,0,.739,1.859,3.661,3.661,0,0,0,2.4,1.1c.841,0,1.506-.024,1.975-.067q.847-.077,1.578-.116c.422-.022.889-.068,1.389-.136q.834-.114,2.273-.265l1.928-.2-.164,1.932a64.52,64.52,0,0,0-.217,6.834c.048,2.312.134,4.676.258,7.029s.258,4.721.406,7.061.247,4.7.3,7.059a3.686,3.686,0,0,0,1.1,2.414,2.8,2.8,0,0,0,1.862.738,2.457,2.457,0,0,0,1.723-.83,4,4,0,0,0,.938-2.607c-.05-2.323-.148-4.7-.293-7.058q-.224-3.638-.409-7.242c-.125-2.413-.2-4.854-.224-7.255a63.939,63.939,0,0,1,.342-7.336l.137-1.309,1.311-.119c3.226-.293,6.494-.517,9.716-.665a4.13,4.13,0,0,0,2.176-1.114A2.384,2.384,0,0,0,474.763,228.088Z" transform="translate(-438.472 -220.789)" fill="#fff"/><path id="Tracé_292" data-name="Tracé 292" d="M458.048,268.9a7.183,7.183,0,0,1-4.7-1.752,7.848,7.848,0,0,1-2.619-5.168,4.287,4.287,0,0,1-.039-.495c-.049-2.287-.145-4.6-.289-6.879q-.223-3.532-.409-7.107c-.125-2.382-.213-4.794-.262-7.167-.028-1.308-.018-2.627.03-3.947-.224.02-.442.035-.654.046-.432.023-.905.058-1.413.1-.594.055-1.369.084-2.36.085a3.67,3.67,0,0,1-.6-.04,7.833,7.833,0,0,1-5.147-2.619,7.062,7.062,0,0,1-1.752-4.751,6.8,6.8,0,0,1,2.1-4.706,8.117,8.117,0,0,1,5.416-2.209c.063,0,.126-.007.189-.008,2.422-.045,4.673-.179,6.692-.392q3.149-.333,6.182-.667,3.055-.333,6.228-.634c2.065-.193,4.35-.342,6.8-.444a4.291,4.291,0,0,1,1.568.224,8.02,8.02,0,0,1,4,2.763,6.99,6.99,0,0,1,1.471,4.417v.005a6.707,6.707,0,0,1-1.826,4.374,8.344,8.344,0,0,1-4.423,2.432,4.527,4.527,0,0,1-.781.107c-2.395.11-4.815.261-7.223.455-.1,1.521-.143,3.052-.125,4.574.023,2.321.1,4.7.219,7.078s.258,4.789.405,7.2c.148,2.426.25,4.858.3,7.231,0,.132,0,.265-.01.4a8.157,8.157,0,0,1-2.2,5.385,6.8,6.8,0,0,1-4.7,2.106Zm-12.494-37.861Zm28.566-3.592h0Z" transform="translate(-437.829 -220.146)" fill="#fff"/></g><g id="Groupe_520" data-name="Groupe 520" transform="translate(178.29 4.512)"><path id="Tracé_293" data-name="Tracé 293" d="M502.516,213.621c-2.68-.12-5.36-.286-7.967-.491-2.65-.207-5.345-.341-8.008-.4a3.6,3.6,0,0,0-2.067.666,3.669,3.669,0,0,0-1.119,1.4,3.43,3.43,0,0,0-.274,1.6,3,3,0,0,0,.5,1.51l.319.494.02.624c.2,6.168.626,12.373,1.275,18.443.66,6.182,1.07,12.509,1.223,18.806v.057a2.854,2.854,0,0,0,.354,1.539l.156.3a3.17,3.17,0,0,0,.873,1.257,2.517,2.517,0,0,0,1.14.578,1.9,1.9,0,0,0,1.079-.106,2.633,2.633,0,0,0,1.027-.795l.221-.264.289-.148c1.8-.918,3.646-1.759,5.5-2.5a21.729,21.729,0,0,1,5.9-1.44,3.472,3.472,0,0,0,2.364-1.532,3.816,3.816,0,0,0,.586-2.355,3.449,3.449,0,0,0-1.036-2.1,3.311,3.311,0,0,0-2.73-.792,22.748,22.748,0,0,0-4.086.723,25.081,25.081,0,0,0-4.043,1.494l-1.971.925-.251-2.51c-.105-1.059-.186-2.132-.236-3.191-.048-.973-.122-1.969-.219-2.958l-.183-1.871,1.559-.286a16.244,16.244,0,0,1,2.152-.247c.6-.027,1.226-.067,1.873-.122a4.05,4.05,0,0,0,2.24-1.361,3.214,3.214,0,0,0,.713-1.906,3.723,3.723,0,0,0-.625-2.082,3.9,3.9,0,0,0-1.922-1.5l-2.388.16c-.849.059-1.695.146-2.513.261l-1.634.228-.181-1.952c-.3-3.268-.536-6.587-.689-9.867l-.1-2.177,1.823.119q2.812.183,5.549.408c1.708.142,3.467.217,5.233.221a4.014,4.014,0,0,0,2.185-1.346,3.211,3.211,0,0,0,.713-1.906,3.723,3.723,0,0,0-.624-2.081A3.942,3.942,0,0,0,502.516,213.621Z" transform="translate(-478.716 -208.371)" fill="#fff"/><path id="Tracé_294" data-name="Tracé 294" d="M488.653,263.743a6.319,6.319,0,0,1-1.163-.108,6.869,6.869,0,0,1-3.121-1.508,7.413,7.413,0,0,1-2.026-2.739l-.028-.053a7.225,7.225,0,0,1-.9-3.656c-.149-6.133-.552-12.34-1.2-18.4-.641-6-1.071-12.133-1.279-18.233a7.294,7.294,0,0,1-.849-3.075,7.777,7.777,0,0,1,.629-3.557,7.968,7.968,0,0,1,2.4-3.067,7.834,7.834,0,0,1,4.528-1.607c.118-.008.234-.01.351-.007,2.756.063,5.532.2,8.249.415,2.567.2,5.2.363,7.823.481a4.339,4.339,0,0,1,1.39.294,8.3,8.3,0,0,1,4.107,3.281,8.072,8.072,0,0,1,1.283,4.482,7.533,7.533,0,0,1-1.6,4.442,8.249,8.249,0,0,1-4.474,2.907,5.566,5.566,0,0,1-1.194.165c-1.876,0-3.755-.085-5.584-.237q-1.2-.1-2.414-.189.133,2.24.314,4.474l2.3-.154a4.347,4.347,0,0,1,1.927.308,8.256,8.256,0,0,1,3.986,3.232,8.063,8.063,0,0,1,1.284,4.477,7.536,7.536,0,0,1-1.6,4.447,8.282,8.282,0,0,1-4.565,2.932,4.327,4.327,0,0,1-.782.139q-.635.054-1.244.09c.01.144.018.288.026.43.341-.107.684-.207,1.026-.3a27.2,27.2,0,0,1,4.873-.862,7.528,7.528,0,0,1,6.215,2.1,7.743,7.743,0,0,1,2.244,4.694,8.134,8.134,0,0,1-1.16,4.995,7.739,7.739,0,0,1-5.122,3.57,4.409,4.409,0,0,1-.574.1,17.331,17.331,0,0,0-4.714,1.153c-1.57.625-3.144,1.331-4.684,2.1a6.775,6.775,0,0,1-2.36,1.6A6.275,6.275,0,0,1,488.653,263.743Z" transform="translate(-478.073 -207.728)" fill="#fff"/></g><g id="Groupe_521" data-name="Groupe 521" transform="translate(204.314 3.419)"><path id="Tracé_295" data-name="Tracé 295" d="M517.569,251.94a14.791,14.791,0,0,0,4.5,2.1,22.819,22.819,0,0,0,5.6.846,25.454,25.454,0,0,0,5.862-.513,21.309,21.309,0,0,0,5.357-1.854,14.461,14.461,0,0,0,4.139-3.121,9.6,9.6,0,0,0,2.258-4.259,12.739,12.739,0,0,0,.461-5.014,13.93,13.93,0,0,0-1.372-4.683,12.628,12.628,0,0,0-2.911-3.785,11.819,11.819,0,0,0-4.269-2.405,16.613,16.613,0,0,0-3.022-.706c-1.115-.15-2.229-.27-3.307-.357q-1.68-.136-3.4-.227a22.61,22.61,0,0,1-3.742-.505l-.193-.053c-.215-.071-.541-.2-.973-.376a4.946,4.946,0,0,1-1.609-1.077,4.078,4.078,0,0,1-1.054-1.712,2.784,2.784,0,0,1,1.047-3.024,8.838,8.838,0,0,1,4.181-2.137,16.334,16.334,0,0,1,3.892-.262c1.088.059,2.185.089,3.263.089a5.443,5.443,0,0,0,2.29-.507,4.677,4.677,0,0,0,2.071-2.166,3.594,3.594,0,0,0,.177-2.273,3.036,3.036,0,0,0-1.259-1.674,3.609,3.609,0,0,0-2.468-.564l-.246.021-.244-.041c-.321-.052-.63-.092-.924-.12-.276-.024-.6-.037-.966-.037l-.177-.008a14.406,14.406,0,0,0-1.862-.04,16.5,16.5,0,0,0-1.969.206l-.1.014a27.3,27.3,0,0,0-6.274,1.551,11.479,11.479,0,0,0-4.9,3.3,9.928,9.928,0,0,0-1.914,3.532,12.7,12.7,0,0,0-.559,4.229,11.611,11.611,0,0,0,.906,4.1,7.743,7.743,0,0,0,2.322,3.1,13.241,13.241,0,0,0,5.724,2.739,23.638,23.638,0,0,0,3.476.324c1.681.065,3.362.193,5,.381a17.55,17.55,0,0,1,4.894,1.256,5.3,5.3,0,0,1,3.4,4.212A5.17,5.17,0,0,1,537.6,244.8a7.627,7.627,0,0,1-3.226,2.139,12.612,12.612,0,0,1-4,.719,24.5,24.5,0,0,1-3.869-.2,17.15,17.15,0,0,1-3.291-.737,3.487,3.487,0,0,1-2.575-2.371,4.554,4.554,0,0,0-1.853-2.783,3.206,3.206,0,0,0-2.381-.5,3.488,3.488,0,0,0-2.057,1.457,4.351,4.351,0,0,0-.607,3.172,19.077,19.077,0,0,0,1.418,3.615A7.829,7.829,0,0,0,517.569,251.94Z" transform="translate(-508.58 -207.118)" fill="#fff"/><path id="Tracé_296" data-name="Tracé 296" d="M527.744,258.606q-.424,0-.848-.012a27.092,27.092,0,0,1-6.67-1.013,19.067,19.067,0,0,1-5.822-2.73c-.012-.01-.026-.019-.039-.029a12.133,12.133,0,0,1-3.7-4.138,23.448,23.448,0,0,1-1.747-4.441,4.213,4.213,0,0,1-.141-.72,8.566,8.566,0,0,1,1.442-6.252,7.748,7.748,0,0,1,4.622-3.111c.185-.041.384-.076.6-.1a16.9,16.9,0,0,1-2.691-1.833,12.1,12.1,0,0,1-3.552-4.762,15.95,15.95,0,0,1-1.242-5.629,17.042,17.042,0,0,1,.749-5.666,14.235,14.235,0,0,1,2.755-5.069,15.749,15.749,0,0,1,6.711-4.571,31.664,31.664,0,0,1,7.237-1.786,20.675,20.675,0,0,1,2.428-.249,18.631,18.631,0,0,1,2.328.044c.453,0,.873.021,1.251.054.322.031.64.07.964.118a7.894,7.894,0,0,1,5.038,1.365,7.4,7.4,0,0,1,2.947,4.063,7.9,7.9,0,0,1-.3,4.979,8.842,8.842,0,0,1-3.869,4.346,4.352,4.352,0,0,1-.484.258,9.866,9.866,0,0,1-4.088.893c-1.161,0-2.338-.032-3.5-.1a12.193,12.193,0,0,0-2.846.193c-.068.013-.136.028-.2.046a18.532,18.532,0,0,0,1.965.207q1.8.1,3.533.236c1.141.091,2.332.22,3.534.382a20.964,20.964,0,0,1,3.821.891,16.086,16.086,0,0,1,5.789,3.284,16.977,16.977,0,0,1,3.911,5.093,18.3,18.3,0,0,1,1.8,6.139,17.155,17.155,0,0,1-.583,6.641,14.024,14.024,0,0,1-3.25,6.063,18.8,18.8,0,0,1-5.378,4.064,25.68,25.68,0,0,1-6.454,2.238A29.853,29.853,0,0,1,527.744,258.606Zm-3.727-16.643a13.174,13.174,0,0,0,2.43.531,20.576,20.576,0,0,0,3.182.165,8.3,8.3,0,0,0,2.618-.459,3.353,3.353,0,0,0,1.42-.894,1.249,1.249,0,0,0,.053-.841c-.04-.27-.085-.572-.81-.882a13.213,13.213,0,0,0-3.679-.932c-1.519-.175-3.089-.294-4.666-.355-1.158-.043-2.144-.115-2.978-.218A9.2,9.2,0,0,1,524.017,241.963Zm8.084-28.272Z" transform="translate(-507.937 -206.475)" fill="#fff"/></g></g><g id="Groupe_523" data-name="Groupe 523" transform="translate(273.871 192.948)"><path id="Tracé_297" data-name="Tracé 297" d="M309.328,223.1a13.7,13.7,0,0,0-4.768-11.245,17.8,17.8,0,0,0-6.271-3.378,23.948,23.948,0,0,0-8.671-.926c-1.421.134-2.855.255-4.214.359a22.69,22.69,0,0,0-3,.4,7.491,7.491,0,0,0-2.57,1.413,4.419,4.419,0,0,0-1.359,2.549c0,7.746.055,15.547.159,23.19.105,7.7.159,15.586.159,23.432a5.073,5.073,0,0,0,1.573,3.349,4.047,4.047,0,0,0,2.674,1.031,3.573,3.573,0,0,0,2.473-1.158,5.5,5.5,0,0,0,1.348-3.664v-7.9c0-2.616-.035-5.278-.105-7.912l-.06-2.294h2.36a19.451,19.451,0,0,0,3.7-.371,31.808,31.808,0,0,0,3.77-.964,20.691,20.691,0,0,0,3.157-1.3,11.086,11.086,0,0,0,2.11-1.353,21.368,21.368,0,0,0,5.546-6.536A16.719,16.719,0,0,0,309.328,223.1Zm-9.768,3.682a11.294,11.294,0,0,1-2.929,3.289,8.59,8.59,0,0,1-3.581,1.77c-.8.149-1.81.293-3.09.437l-.67.077-.606-.288a5.419,5.419,0,0,1-.654-.365c-.01-.006-.061-.034-.118-.061l-1.216-.6-.048-1.323c-.071-2-.107-4.013-.107-5.978v-7.984l2.138-.147q1.484-.1,2.917-.207c1.029-.072,2.07-.109,3.1-.109h.27l.264.061a6.792,6.792,0,0,1,5.7,7.233A9.355,9.355,0,0,1,299.56,226.78Z" transform="translate(-278.474 -207.495)" fill="#b54727"/><path id="Tracé_298" data-name="Tracé 298" d="M334.735,249.516c-.11-1.562-.272-3.4-.483-5.463s-.53-4.151-.95-6.251a40.246,40.246,0,0,0-1.639-5.9,12.884,12.884,0,0,0-2.484-4.291,8.02,8.02,0,0,0-2.28-1.686,7.751,7.751,0,0,0-2.692-.795,6.085,6.085,0,0,0-2.664.337,5.341,5.341,0,0,0-2.276,1.569,8.348,8.348,0,0,0-1.477,2.747c-.459,1.321-.849,2.44-1.17,3.348-.494,1.319-.87,2.326-1.138,3.05-.254.686-.478,1.339-.661,1.943-.192.627-.408,1.318-.653,2.078s-.609,1.844-1.1,3.262c-.957,2.925-1.911,5.88-2.85,8.834a76.762,76.762,0,0,0-2.2,8.665l-.015.079.014.08a4.9,4.9,0,0,0,1.146,2.549,3.207,3.207,0,0,0,1.925,1.092,2.569,2.569,0,0,0,.356.025,3.324,3.324,0,0,0,1.763-.566,4.606,4.606,0,0,0,1.735-2.393c.2-1.017.43-2.032.669-3.017.248-1.021.541-2.067.871-3.109l.288-.914h.74l.117-.017a1.878,1.878,0,0,1,.486-.064l.138.005c.533.049.9.075,1.091.075a4.769,4.769,0,0,1,.774.057c.157.027.325.05.515.073.212.028.622.065,1.229.115l.078.008c.756.1,1.5.166,2.208.192a11.487,11.487,0,0,0,2.03-.109l1.493-.213v1.508c0,1.155.04,2.334.118,3.5a11.749,11.749,0,0,0,.563,2.928l.041.089a2.8,2.8,0,0,0,1.512,1.243,3.249,3.249,0,0,0,2.148.03,3.78,3.78,0,0,0,1.909-1.558h0a6.1,6.1,0,0,0,.856-3.489q0-.332.041-1.579.041-1.186.04-2.657t-.04-2.992C334.824,250.956,334.785,250.139,334.735,249.516Zm-7.124-1.949-1,.335a3.279,3.279,0,0,1-1.019.151l-.279-.023a6.355,6.355,0,0,0-1.247.017,11.891,11.891,0,0,1-2,0,5.926,5.926,0,0,1-.779-.055c-.2-.028-.453-.072-.753-.133l-1.446-.293.465-1.4c.095-.285.167-.524.21-.7l.037-.123c.535-1.554,1.046-3.127,1.518-4.676.495-1.62,1.047-3.236,1.642-4.8l1.4-3.69,1.079,3.8c.225.793.421,1.564.583,2.292s.329,1.548.491,2.414c.166.987.336,1.929.523,2.855.194.975.349,1.976.461,2.978Z" transform="translate(-282.271 -209.759)" fill="#b54727"/><path id="Tracé_299" data-name="Tracé 299" d="M369.889,215.872a16.137,16.137,0,0,0-5.723-3.158,21.3,21.3,0,0,0-7.912-.866c-1.3.125-2.605.239-3.846.336a20.2,20.2,0,0,0-2.74.374,6.814,6.814,0,0,0-2.345,1.322,4.168,4.168,0,0,0-1.24,2.382c0,7.243.05,14.537.146,21.683.1,7.2.145,14.574.146,21.911a4.782,4.782,0,0,0,1.435,3.131,3.628,3.628,0,0,0,2.44.964,3.222,3.222,0,0,0,2.256-1.081,5.23,5.23,0,0,0,1.232-3.427v-7.386c0-2.485-.033-4.974-.1-7.4l-.057-2.147h2.156a17.34,17.34,0,0,0,3.378-.347,28.7,28.7,0,0,0,3.44-.9,18.607,18.607,0,0,0,2.88-1.216,10.129,10.129,0,0,0,1.927-1.267,19.835,19.835,0,0,0,5.059-6.109,15.92,15.92,0,0,0,1.818-6.286,13.155,13.155,0,0,0-.965-5.77A12.786,12.786,0,0,0,369.889,215.872Zm-4.565,13.959a10.461,10.461,0,0,1-2.669,3.073,7.779,7.779,0,0,1-3.27,1.655c-.73.14-1.653.275-2.819.41l-.607.071-.551-.267a4.759,4.759,0,0,1-.607-.346c-.01-.008-.055-.031-.1-.055l-1.109-.558-.044-1.237c-.064-1.847-.1-3.728-.1-5.59v-7.465l1.951-.137q1.354-.1,2.661-.193c.94-.068,1.891-.1,2.83-.1h.247l.24.057a6.427,6.427,0,0,1,4.153,2.708,6.666,6.666,0,0,1,1.047,4.055A8.894,8.894,0,0,1,365.325,229.831Z" transform="translate(-287.168 -208.048)" fill="#b54727"/><path id="Tracé_300" data-name="Tracé 300" d="M407.68,254.207a4.434,4.434,0,0,0-3.222-.8,29.15,29.15,0,0,0-4.422.648,30.969,30.969,0,0,0-4.369,1.34l-1.58.614-.2-1.664c-.112-.926-.2-1.866-.25-2.795-.051-.872-.131-1.759-.235-2.64l-.146-1.237,1.248-.19a20.091,20.091,0,0,1,2.244-.214c.647-.024,1.316-.059,2.075-.119a4.921,4.921,0,0,0,2.613-1.334,2.983,2.983,0,0,0,.873-1.966,3.32,3.32,0,0,0-.754-2.112,4.54,4.54,0,0,0-2.257-1.475l-.078-.026-2.629.145c-.9.051-1.813.13-2.7.233l-1.309.152-.146-1.294c-.323-2.885-.57-5.812-.732-8.7l-.081-1.441,1.46.078q2.993.162,5.908.362c1.834.126,3.721.192,5.6.2l.1-.011a4.884,4.884,0,0,0,2.552-1.319,2.987,2.987,0,0,0,.873-1.967,3.319,3.319,0,0,0-.753-2.111,4.6,4.6,0,0,0-2.337-1.5l-.118-.02c-2.847-.106-5.7-.252-8.478-.433-2.826-.183-5.7-.3-8.584-.355a4.805,4.805,0,0,0-2.42.66,3.857,3.857,0,0,0-1.339,1.394,3.019,3.019,0,0,0-.342,1.64,2.786,2.786,0,0,0,.62,1.574l.254.327.016.412c.211,5.466.668,10.965,1.361,16.346.7,5.451,1.139,11.031,1.3,16.621a2.571,2.571,0,0,0,.443,1.59l.146.232a3.28,3.28,0,0,0,1.071,1.273,3.339,3.339,0,0,0,1.394.582,2.961,2.961,0,0,0,.46.037,2.818,2.818,0,0,0,.892-.146,3.221,3.221,0,0,0,1.264-.806l.178-.175.231-.1c1.91-.81,3.872-1.548,5.829-2.2a26.945,26.945,0,0,1,6.232-1.26,4.2,4.2,0,0,0,2.79-1.529,3.351,3.351,0,0,0,.7-2.386A3.3,3.3,0,0,0,407.68,254.207Z" transform="translate(-292.01 -209.392)" fill="#b54727"/><path id="Tracé_301" data-name="Tracé 301" d="M431.575,219.629l1.709-.151c4.2-.372,8.466-.656,12.667-.844a5.428,5.428,0,0,0,2.836-1.413,3,3,0,0,0,.909-1.982,3.383,3.383,0,0,0-.8-2.169,4.952,4.952,0,0,0-2.469-1.564c-3.1.125-5.973.307-8.559.542q-4.089.376-8.034.8-3.968.423-8.076.847c-2.8.288-5.9.466-9.213.528a5.267,5.267,0,0,0-3.4,1.193,3.088,3.088,0,0,0-1.08,2.188,3.437,3.437,0,0,0,.962,2.36,4.828,4.828,0,0,0,3.124,1.39c1.1,0,1.962-.031,2.575-.085q1.1-.1,2.057-.147c.55-.028,1.157-.085,1.81-.172q1.088-.145,2.962-.336l2.514-.26-.215,2.453a79.972,79.972,0,0,0-.281,8.674c.062,2.934.175,5.934.336,8.921q.239,4.506.53,8.962c.191,2.951.322,5.964.388,8.96a4.623,4.623,0,0,0,1.43,3.063,3.7,3.7,0,0,0,2.426.937,3.243,3.243,0,0,0,2.247-1.053,5,5,0,0,0,1.222-3.309c-.065-2.949-.193-5.962-.381-8.958q-.291-4.617-.533-9.192c-.162-3.062-.261-6.16-.292-9.208a79.537,79.537,0,0,1,.445-9.31Z" transform="translate(-295.139 -208.011)" fill="#b54727"/><path id="Tracé_302" data-name="Tracé 302" d="M472.331,224.614l-.076-.025-.081,0c-2.369.1-4.586.241-6.589.43q-3.14.3-6.169.628-3.044.333-6.195.667c-2.134.227-4.5.366-7.05.416a4.4,4.4,0,0,0-2.885,1.066,2.911,2.911,0,0,0-.957,2.022,3.162,3.162,0,0,0,.841,2.149,4.109,4.109,0,0,0,2.731,1.251c.854,0,1.532-.024,2.014-.069q.839-.075,1.562-.114c.43-.023.909-.069,1.425-.139q.829-.112,2.26-.264l1.4-.147-.119,1.406a64.834,64.834,0,0,0-.218,6.881c.048,2.331.134,4.7.257,7.043q.186,3.553.407,7.065c.146,2.332.247,4.7.3,7.091a4.089,4.089,0,0,0,1.249,2.689,3.234,3.234,0,0,0,2.127.84h.025a2.9,2.9,0,0,0,2.021-.957,4.445,4.445,0,0,0,1.065-2.925c-.05-2.318-.148-4.7-.294-7.075q-.223-3.635-.408-7.238c-.125-2.421-.2-4.855-.225-7.238a63.641,63.641,0,0,1,.34-7.286l.1-.952.955-.086q4.827-.439,9.776-.674a4.54,4.54,0,0,0,2.4-1.246,2.807,2.807,0,0,0,.81-1.841h0a3.134,3.134,0,0,0-.7-1.98A4.213,4.213,0,0,0,472.331,224.614Z" transform="translate(-299.544 -209.693)" fill="#b54727"/><path id="Tracé_303" data-name="Tracé 303" d="M505.119,248.327a3.729,3.729,0,0,0-3.086-.925,23.147,23.147,0,0,0-4.168.736,25.429,25.429,0,0,0-4.115,1.521l-1.4.656-.188-1.882c-.106-1.061-.185-2.127-.234-3.168-.049-.986-.123-1.989-.22-2.979l-.144-1.462,1.155-.212a15.7,15.7,0,0,1,2.091-.241c.609-.027,1.237-.067,1.97-.137a4.48,4.48,0,0,0,2.478-1.522,3.644,3.644,0,0,0,.8-2.165,4.162,4.162,0,0,0-.693-2.328,4.346,4.346,0,0,0-2.133-1.676l-.1-.038-2.49.168c-.861.059-1.717.147-2.545.263l-1.17.165-.139-1.487c-.3-3.255-.534-6.567-.687-9.846l-.078-1.677,1.326.086q2.806.182,5.54.408c1.724.143,3.5.218,5.268.222l.123-.017a4.443,4.443,0,0,0,2.42-1.507,3.64,3.64,0,0,0,.8-2.165,4.157,4.157,0,0,0-.692-2.328,4.376,4.376,0,0,0-2.21-1.706l-.143-.03c-2.667-.119-5.343-.284-7.952-.489-2.653-.207-5.356-.342-8.068-.4a4.037,4.037,0,0,0-2.321.763,4.114,4.114,0,0,0-1.25,1.566,3.864,3.864,0,0,0-.311,1.8,3.432,3.432,0,0,0,.566,1.729l.253.389.016.5c.2,6.177.627,12.393,1.277,18.477.657,6.163,1.068,12.479,1.222,18.815a3.249,3.249,0,0,0,.4,1.745l.14.268a3.625,3.625,0,0,0,1,1.429,2.96,2.96,0,0,0,1.343.672,2.434,2.434,0,0,0,.446.042,2.36,2.36,0,0,0,.88-.171,3.061,3.061,0,0,0,1.2-.924l.164-.2.207-.106c1.791-.915,3.629-1.75,5.463-2.479a21.487,21.487,0,0,1,5.836-1.422,3.892,3.892,0,0,0,2.647-1.741,4.251,4.251,0,0,0,.644-2.626A3.883,3.883,0,0,0,505.119,248.327Z" transform="translate(-304.717 -208.095)" fill="#b54727"/><path id="Tracé_304" data-name="Tracé 304" d="M545.74,240.065a13.93,13.93,0,0,0-1.372-4.683,12.631,12.631,0,0,0-2.911-3.786,11.818,11.818,0,0,0-4.269-2.4,16.472,16.472,0,0,0-3.022-.706c-1.115-.15-2.229-.27-3.307-.358q-1.68-.136-3.4-.227a22.614,22.614,0,0,1-3.742-.506l-.193-.053c-.215-.071-.541-.2-.973-.376a4.944,4.944,0,0,1-1.609-1.076,4.078,4.078,0,0,1-1.054-1.712,2.785,2.785,0,0,1,1.047-3.025,8.836,8.836,0,0,1,4.181-2.136,16.332,16.332,0,0,1,3.892-.263c1.088.059,2.185.09,3.263.09a5.458,5.458,0,0,0,2.29-.507,4.685,4.685,0,0,0,2.071-2.166,3.6,3.6,0,0,0,.177-2.274,3.032,3.032,0,0,0-1.26-1.673,3.6,3.6,0,0,0-2.467-.564l-.246.02-.244-.04c-.321-.052-.63-.093-.924-.12-.276-.025-.6-.037-.966-.037l-.177-.008a14.1,14.1,0,0,0-1.862-.04,16.134,16.134,0,0,0-1.969.206l-.1.014a27.248,27.248,0,0,0-6.274,1.55,11.494,11.494,0,0,0-4.9,3.3,9.935,9.935,0,0,0-1.914,3.532,12.709,12.709,0,0,0-.559,4.229,11.611,11.611,0,0,0,.906,4.1,7.737,7.737,0,0,0,2.322,3.1,13.241,13.241,0,0,0,5.724,2.74,23.765,23.765,0,0,0,3.476.324c1.681.064,3.362.192,5,.381a17.517,17.517,0,0,1,4.894,1.255,5.3,5.3,0,0,1,3.4,4.212,5.172,5.172,0,0,1-1.062,4.367,7.628,7.628,0,0,1-3.226,2.138,12.586,12.586,0,0,1-4,.719,24.51,24.51,0,0,1-3.869-.2,17.151,17.151,0,0,1-3.291-.738,3.484,3.484,0,0,1-2.575-2.37,4.549,4.549,0,0,0-1.853-2.783,3.2,3.2,0,0,0-2.381-.5,3.486,3.486,0,0,0-2.057,1.456,4.352,4.352,0,0,0-.607,3.173,19.1,19.1,0,0,0,1.418,3.615,7.845,7.845,0,0,0,2.405,2.636,14.771,14.771,0,0,0,4.5,2.095,22.735,22.735,0,0,0,5.6.846,25.409,25.409,0,0,0,5.862-.513,21.241,21.241,0,0,0,5.357-1.854,14.443,14.443,0,0,0,4.139-3.121,9.6,9.6,0,0,0,2.258-4.259A12.735,12.735,0,0,0,545.74,240.065Z" transform="translate(-308.623 -208)" fill="#b54727"/></g><g id="Groupe_524" data-name="Groupe 524" transform="translate(242.674 195.167)"><path id="Tracé_305" data-name="Tracé 305" d="M244.37,244.715a1.7,1.7,0,0,1-.077-3.394l16.655-.765a1.718,1.718,0,0,1,1.773,1.618,1.7,1.7,0,0,1-1.617,1.774l-16.655.765Z" transform="translate(-242.674 -213.965)" fill="#fff"/><path id="Tracé_306" data-name="Tracé 306" d="M245.591,275.365a1.7,1.7,0,0,1-.668-3.258l17.01-7.269a1.7,1.7,0,0,1,1.334,3.121l-17.01,7.269A1.7,1.7,0,0,1,245.591,275.365Z" transform="translate(-242.831 -217.07)" fill="#fff"/><path id="Tracé_307" data-name="Tracé 307" d="M260.683,219.559a1.691,1.691,0,0,1-.7-.152l-13.466-6.122a1.7,1.7,0,0,1,1.4-3.09l13.467,6.121a1.7,1.7,0,0,1-.7,3.243Z" transform="translate(-243.04 -210.041)" fill="#fff"/></g><g id="Groupe_525" data-name="Groupe 525" transform="translate(518.82 191.352)"><path id="Tracé_308" data-name="Tracé 308" d="M562.563,241.2a1.582,1.582,0,0,1-.082-3.162l14.469-.765a1.582,1.582,0,1,1,.166,3.161l-14.468.765Z" transform="translate(-559.75 -209.728)" fill="#fff"/><path id="Tracé_309" data-name="Tracé 309" d="M561.152,216.1a1.582,1.582,0,0,1-.7-3l14.776-7.269a1.582,1.582,0,0,1,1.4,2.839l-14.777,7.269A1.576,1.576,0,0,1,561.152,216.1Z" transform="translate(-559.569 -205.663)" fill="#fff"/><path id="Tracé_310" data-name="Tracé 310" d="M574.968,270.925a1.582,1.582,0,0,1-.732-.181l-11.7-6.122a1.582,1.582,0,1,1,1.467-2.8l11.7,6.122a1.583,1.583,0,0,1-.735,2.985Z" transform="translate(-559.842 -212.861)" fill="#fff"/></g></g></svg>