<svg xmlns="http://www.w3.org/2000/svg" xmlns:xlink="http://www.w3.org/1999/xlink" version="1.1" id="Logo2_x5F_Axe6" x="0px" y="0px" viewBox="0 0 384.67389 185.63007" enable-background="new 0 0 384.67389 185.63007" xml:space="preserve">
<g>
	<g>
		<g>
			<g>
				<path fill="#FFFFFF" d="M356.18152,185.63007H28.49236C12.78078,185.63007,0,172.84799,0,157.13641V28.49365      C0,12.78206,12.78078,0,28.49236,0h124.5965c20.35353,0,29.22057,11.70135,32.0999,16.75242h102.27968      c11.07993,0,18.10718,1.70599,25.10611,6.21542c19.71539-6.88829,38.0773-5.44476,51.85904,4.12731      c12.8631,8.93522,20.2403,24.25826,20.2403,42.04251v87.99876C384.67389,172.84799,371.89313,185.63007,356.18152,185.63007z"/>
			</g>
		</g>
	</g>
	<path fill="#FFD000" d="M28.49236,7.12502c-11.7824,0-21.36992,9.58623-21.36992,21.36863v128.64276   c0,11.78239,9.58751,21.36862,21.36992,21.36862h327.68915c11.78241,0,21.36993-9.58623,21.36993-21.36862V69.13766   c0-15.41568-6.26303-28.60687-17.18341-36.18991c-12.20956-8.48235-28.91437-9.43312-47.04214-2.67735l-1.75745,0.65487   l-1.53357-1.07943c-6.35052-4.46182-12.04486-5.9684-22.56644-5.9684H180.57513l-0.8903-2.2515   c-0.23674-0.57253-6.19098-14.50092-26.59596-14.50092H28.49236z"/>
	<g>
		<g>
			<polygon fill="#27348B" points="116.50104,138.20906 116.50104,132.71846 109.35029,132.71846 109.35029,138.20906      92.82602,137.99806 92.82602,132.71846 85.54662,132.71846 85.54662,138.42006 79.59237,150.00031 79.59237,162.06654      119.5026,162.06654 119.5026,150.00031    "/>
			<g>
				<polygon fill="#27348B" points="54.6237,43.22932 44.9029,43.22932 44.9029,43.92198 45.4299,43.92198 45.4299,48.35349       63.19105,48.35349 63.19105,43.92198 63.67021,43.92198 63.67021,43.22932     "/>
				<path fill="#27348B" d="M60.20645,162.06654l-0.22936-91.16206l5.71088-9.7328l3.61948-3.67958v-4.55448h-1.62874v-3.0859      H64.2401v0.59341h-19.9071v-0.59341H40.8944v3.0859h-1.62873v4.55448l3.61947,3.67958l5.71089,9.7328l-0.22936,91.16206      H60.20645z"/>
				<polygon fill="#27348B" points="66.75333,62.21565 68.97855,140.89438 73.09279,151.69551 73.09279,162.06654       61.91844,162.06654 61.91844,70.8651     "/>
				<polygon fill="#27348B" points="41.81978,62.21565 39.59456,140.89438 35.48032,151.69551 35.48032,162.06654       46.65467,162.06654 46.65467,70.8651     "/>
				<path fill="#27348B" d="M56.27046,23.09976c0.01612-0.10109,0.06038-0.19234,0.06038-0.29834      c0-1.08737-0.88165-1.96874-1.96874-1.96874c-1.08737,0-1.96902,0.88137-1.96902,1.96874      c0,0.09043,0.03962,0.16748,0.05136,0.25463c-3.25474,0.82509-5.67318,3.74952-5.67318,7.2608v0.76737h15.03059v-0.76737      C61.80185,26.85775,59.45171,23.97458,56.27046,23.09976z"/>
			</g>
		</g>
		<g>
			<g>
				<rect x="101.02068" y="149.62714" fill="#FFFFFF" width="5.32223" height="5.32223"/>
				<rect x="89.15775" y="149.62714" fill="#FFFFFF" width="5.32223" height="5.32223"/>
			</g>
			<g>
				<rect x="51.71542" y="125.07214" fill="#FFFFFF" width="5.14228" height="5.76388"/>
				<rect x="51.71542" y="97.83685" fill="#FFFFFF" width="5.14228" height="5.76388"/>
				<rect x="51.71542" y="70.60155" fill="#FFFFFF" width="5.14228" height="5.76388"/>
				<rect x="46.79314" y="32.88913" fill="#FFFFFF" width="14.98683" height="8.39539"/>
				<polygon fill="#FFFFFF" points="19.12995,28.28085 19.12995,45.89279 41.12385,37.08682     "/>
				<g>
					<polygon fill="#FFFFFF" points="78.16558,34.1814 78.16558,32.79615 67.44927,37.0868 86.37115,44.66279 86.37115,36.05689             "/>
				</g>
			</g>
		</g>
	</g>
	<g>
		<g>
			<path fill="#27348B" d="M153.85823,134.67035l-0.00772-23.95979l-0.27017-1.45382     c-0.1235-0.72177-0.64072-0.79897-0.85686-0.79897c-0.06175,0-1.13475,0.05533-2.45219,0.1248     c-1.87068,0.09907-4.69856,0.24831-4.91985,0.24831c-0.42458,0-0.71019,0.28433-0.71019,0.70761v0.41171     c0,0.24574,0.09264,0.56866,0.61241,0.73463l3.28589,0.57767v5.8436c-1.00609-0.32422-2.04306-0.47089-3.2653-0.47089     c-2.30811,0-4.88124,1.00095-7.01952,2.71466c-2.66835,1.74073-5.84875,4.80405-5.84875,9.50518     c0,2.22319,0.63557,4.50555,1.7446,6.26172l0.00256,0.0013c1.78061,2.79828,4.73715,4.15819,9.03687,4.15819     c2.01991,0,4.37949-0.97522,6.01085-1.92857l0.58153,1.26085c0.09006,0.19942,0.29591,0.66772,0.81827,0.66772     c0.08492,0,0.3448-0.03474,0.85428-0.1158l2.02763-0.30492c0.422-0.07848,0.68445-0.38853,0.68445-0.80925     c0-0.08878-0.00514-0.19942-0.05145-0.422C154.02034,137.16499,153.85823,136.16919,153.85823,134.67035z M144.19353,120.25819     c1.50528,0,3.04144,0.65872,4.34602,1.86038v12.57364c-1.12959,0.49405-2.9308,0.96106-4.30742,0.96106     c-2.1563,0-4.19679-1.18364-5.60173-3.25116c-0.97264-1.3985-1.44611-2.87805-1.44611-4.52229     c0-1.22868,0.18784-4.29328,1.90413-6.40583C140.3544,120.66732,142.07069,120.25819,144.19353,120.25819z"/>
			<path fill="#27348B" d="M164.92015,108.15672c-0.35251,0-0.57123,0.05532-0.93147,0.18526l-1.78575,0.6806     c-0.83113,0.33708-1.00352,0.89417-1.00352,1.3033c0,0.44129,0.18011,0.7951,0.37311,1.17078     c0.28047,0.54679,0.63042,1.22868,0.63042,2.58086c0,1.80248-0.95207,3.04531-2.49594,4.47726     c-0.29077,0.28433-0.51463,0.53007-0.51463,0.88515c0,0.35381,0.18527,0.5648,0.36024,0.73849l0.54036,0.52492l0.00256,0.00129     c0.2393,0.23158,0.49147,0.34351,0.77194,0.34351c0.40913,0,0.72563-0.26761,1.29944-0.78094     c3.15466-2.84203,4.89154-5.77284,4.89154-8.25334C167.05844,109.81511,166.13983,108.15672,164.92015,108.15672z"/>
			<path fill="#27348B" d="M190.08545,135.54007c-0.05147,0-1.14505,0.01543-2.62202,0.03731     c-2.51653,0.03603-6.14465,0.08878-7.55217,0.1055v-11.1404c0.87744,0.01415,2.61946,0.04631,4.2637,0.07719     c1.91698,0.03474,3.70274,0.0669,3.86485,0.0669c0.50175,0,0.86456-0.36024,0.86456-0.85686v-1.87582     c0-0.43744-0.34479-0.77966-0.78737-0.77966c-0.13896,0-1.83466,0.02959-3.70018,0.06304     c-1.72142,0.03088-3.58696,0.06433-4.50557,0.07848v-9.40739c0.99838,0.03088,3.12379,0.1055,4.9147,0.16854     s3.34766,0.11707,3.44543,0.11707c0.50175,0,0.78737-0.28433,0.78737-0.77966v-1.87582c0-0.7951-0.54292-0.85685-0.71017-0.85685     h-16.78973c-0.46317,0-0.74878,0.28433-0.74878,0.74364v0.45029c0,0.3834,0.18784,0.64457,0.58411,0.76551l3.05688,0.70504     c0.07205,0.02058,0.11836,0.0386,0.14153,0.04246v26.84556c0,0.39497,0.34737,0.81825,0.86456,0.81825h14.6283     c0.44,0,0.82597-0.38211,0.82597-0.81825v-1.83723C190.91142,135.92474,190.54089,135.54007,190.08545,135.54007z"/>
			<path fill="#27348B" d="M213.62195,135.20169c-0.07462-0.14537-0.25217-0.48761-0.72563-0.48761     c-0.21614,0-0.41428,0.08878-0.81053,0.26505l-0.16983,0.0759c-1.28656,0.52106-2.69664,0.7861-4.19164,0.7861     c-3.20099,0-8.28294-2.18202-8.28294-8.03592c0-1.91956,0.71019-4.86709,1.86038-6.36079     c1.38435-0.79768,3.06976-1.18622,5.14885-1.18622c1.24283,0,2.44191,0.35252,3.64871,1.08844     c0.07205,0.03988,0.20586,0.11321,0.40398,0.11321c0.37311,0,0.59441-0.28947,0.71019-0.44129l1.65968-2.13828     c0.13637-0.17626,0.27017-0.37182,0.27017-0.63943c0-0.24574-0.10806-0.58153-0.61497-0.77708     c-1.34575-0.55065-3.02858-0.82855-4.99704-0.82855c-2.45735,0-4.95844,0.97908-6.98093,2.71466     c-3.77736,2.46249-5.77155,5.86675-5.77155,9.84483c0,1.15791,0.18784,5.1064,2.61174,7.31157     c1.36891,1.26341,3.88029,2.76999,8.05649,2.76999c2.39044,0,5.9491-0.83498,8.12598-2.43033     c0.36539-0.26889,0.41942-0.58539,0.41942-0.75008c0-0.15439-0.03603-0.28047-0.14667-0.49533L213.62195,135.20169z"/>
			<path fill="#27348B" d="M229.10966,126.90461c2.93852-2.50752,5.34698-5.1437,6.64384-6.81367     c0.47346-0.58539,0.70247-1.07943,0.70247-1.51301c0-0.56094-0.32936-0.97522-0.91861-1.16563l-1.0061-0.33707     c-0.09264-0.03088-0.33192-0.10293-0.56094-0.10293c-0.60725,0-0.80797,0.5172-0.92117,0.81311     c-0.22644,0.62527-0.60727,1.67254-2.50882,3.87901c-1.46153,1.68669-3.47888,3.5638-5.43188,5.07037V110.8508     c0-0.37439-0.12866-0.82211-0.26761-1.29557l-0.10294-0.36153c-0.06947-0.2393-0.21614-0.73592-0.80281-0.73592     c-0.04375,0-1.08586,0.05275-2.38016,0.12094c-1.90669,0.09907-4.79118,0.25088-4.99188,0.25217     c-0.37569,0-0.6716,0.31007-0.6716,0.70761v0.41171c0,0.21614,0.07205,0.51077,0.422,0.68574l3.47632,0.65873v26.93948     c0,0.47473,0.34737,0.81825,0.82597,0.81825h3.62813c0.49403,0,0.86458-0.35124,0.86458-0.81825v-8.16328     c3.22928,3.97678,7.29741,8.39101,8.09509,9.13206c0.27531,0.26117,0.64584,0.29977,0.84398,0.29977     c0.34995,0,0.76422-0.17755,0.96494-0.27661l2.61172-1.19394c0.33708-0.1441,0.72305-0.37955,0.72305-0.92247     c0-0.33836-0.22128-0.60083-0.43742-0.81311C237.85062,136.24124,232.36211,130.90198,229.10966,126.90461z"/>
			<path fill="#27348B" d="M282.81622,137.12254l-2.75583-0.48889c-0.00259,0-0.00259,0-0.00259,0     c1.05756-4.03596,1.59534-7.49812,1.59534-10.28999c0-6.35179-3.51489-9.70845-10.16644-9.70845     c-2.45993,0-5.08453,1.1013-7.62421,3.19455c-1.70087-2.14857-4.42838-3.19455-8.31639-3.19455     c-2.10741,0-4.42065,0.7758-6.34795,2.10612l-0.20584-1.30716c-0.09006-0.53007-0.36539-0.79896-0.81827-0.79896     c-0.04373,0-1.07556,0.05275-2.35442,0.12094c-1.88611,0.09906-4.73972,0.25088-4.94043,0.25217     c-0.37567,0-0.67159,0.31006-0.67159,0.70761v0.41171c0,0.21614,0.07205,0.51077,0.422,0.68574l3.46344,0.68574     c0.00514,0.00129,0.00772,0.00258,0.01286,0.00258v18.73245c0,0.47473,0.34738,0.81825,0.82599,0.81825h3.62811     c0.49405,0,0.86458-0.35124,0.86458-0.81825v-16.71254c1.44096-0.99194,3.83913-1.26341,5.07938-1.26341     c4.82205,0,5.54254,2.96683,5.54254,4.73457v13.24138c0,0.47473,0.34738,0.81825,0.82599,0.81825h3.62811     c0.49405,0,0.86456-0.35124,0.86456-0.81825v-15.90329c1.81921-1.46926,3.35025-2.07266,5.23376-2.07266     c3.96521,0,5.81274,2.12412,5.81274,6.68501c0,3.54321-1.04214,7.65251-1.9556,10.86765     c-0.05661,0.2213-0.09006,0.36282-0.09006,0.49791c0,0.37053,0.24188,0.74364,0.78738,0.74364h7.71942     c0.60983,0,0.82596-0.40269,0.82596-0.77966v-0.30106C283.69879,137.29366,283.15073,137.18816,282.81622,137.12254z"/>
			<path fill="#27348B" d="M301.70819,111.63046h3.31934c0.67932,0,1.13477-0.44901,1.13477-1.11674v-1.83979     c0-0.66773-0.42456-1.11674-1.05756-1.11674c-0.2316,0-3.52777,0.48761-3.54321,0.49018     c-0.62271,0.07848-1.02667,0.53007-1.02667,1.15148v1.31487C300.53485,111.18145,301.00574,111.63046,301.70819,111.63046z"/>
			<path fill="#27348B" d="M309.63602,135.45772v-17.74178c0-0.50433-0.33963-0.85686-0.82596-0.85686h-3.62814     c-0.50174,0-0.86456,0.36024-0.86456,0.85686v16.82703c-1.33289,0.7565-2.96939,1.11031-5.11798,1.11031     c-4.93271,0-5.50394-3.4287-5.50394-6.00827c0-3.42227,0.54294-7.3759,1.48215-10.82906l0.11319-0.34094     c0.11838-0.3345,0.21872-0.6227,0.21872-0.87229c0-0.57896-0.36279-0.9675-0.90317-0.9675     c-0.13123,0-0.99066,0.05404-3.06973,0.18784c-1.77548,0.11322-3.76965,0.24187-4.2637,0.26247     c-0.40399,0-0.71017,0.30234-0.71017,0.70504v0.37568c0,0.2007,0.06946,0.56094,0.57379,0.72691l2.51138,0.63557     c0.03604,0.01029,0.06949,0.0193,0.09265,0.02702c-0.01804,0.08749-0.04889,0.19556-0.07205,0.27018     c-0.84656,3.29105-1.48471,7.59205-1.48471,10.00437c0,6.17938,3.46088,9.44598,10.01208,9.44598     c2.96939,0,5.45505-1.40622,6.79309-2.35442l0.59439,1.68153c0.1904,0.55708,0.60211,0.67288,0.91089,0.67288     c0.06433,0,0.19556-0.01544,0.37823-0.04375l2.45737-0.34608c0.38083-0.09392,0.61496-0.40141,0.61496-0.80153     c0-0.12352-0.02829-0.24445-0.06946-0.42844C309.793,137.28723,309.63602,136.60149,309.63602,135.45772z"/>
			<path fill="#27348B" d="M294.25897,111.63046h3.31934c0.67929,0,1.13477-0.44901,1.13477-1.11674v-1.83979     c0-0.66773-0.42459-1.11674-1.05759-1.11674c-0.23157,0-3.52777,0.48761-3.54321,0.49018     c-0.62268,0.07848-1.02667,0.53007-1.02667,1.15148v1.31487C293.0856,111.18145,293.55649,111.63046,294.25897,111.63046z"/>
			<path fill="#27348B" d="M341.48376,137.12254l-2.75583-0.48889c-0.00256,0-0.00256,0-0.00256,0     c1.05756-4.03596,1.59534-7.49812,1.59534-10.28999c0-6.26044-3.56894-9.70845-10.05069-9.70845     c-2.34668,0-4.47467,0.63943-6.46887,1.95044v-7.77345c0-0.47989-0.1904-1.10001-0.37051-1.6185     c-0.06949-0.2393-0.21616-0.73592-0.80283-0.73592c-0.04373,0-1.08588,0.05275-2.38016,0.12094     c-1.90668,0.09907-4.79117,0.25088-4.99188,0.25217c-0.37567,0-0.6716,0.31007-0.6716,0.70761v0.41171     c0,0.21614,0.07205,0.51077,0.422,0.68574l3.47632,0.6613v26.9369c0,0.47473,0.34738,0.81825,0.82599,0.81825h3.62811     c0.49405,0,0.86456-0.35124,0.86456-0.81825v-16.7074c0.90317-0.62141,2.29782-1.26855,4.96359-1.26855     c4.42581,0,6.31448,1.99933,6.31448,6.68501c0,3.40555-0.96494,7.39262-1.91443,10.85222     c-0.01028,0.04889-0.02829,0.09648-0.0463,0.13895c-0.04117,0.1145-0.08493,0.23286-0.08493,0.37439     c0,0.431,0.33194,0.74364,0.78738,0.74364h7.71942c0.60983,0,0.82599-0.40269,0.82599-0.77966v-0.30106     C342.36636,137.29366,341.81827,137.18816,341.48376,137.12254z"/>
			<path fill="#27348B" d="M353.45914,109.1937c-0.06946-0.2393-0.21613-0.73592-0.8414-0.73592     c-0.04633,0-1.17334,0.0579-2.53711,0.12994c-1.83722,0.09521-4.60849,0.24059-4.79633,0.24316     c-0.40399,0-0.71021,0.30363-0.71021,0.70761v0.41171c0,0.24574,0.09265,0.56866,0.60983,0.73463l3.28848,0.60984v26.93948     c0,0.47473,0.34738,0.81825,0.82599,0.81825h3.66672c0.46317,0,0.82596-0.35895,0.82596-0.81825V110.8508     C353.79108,110.39793,353.62384,109.79066,353.45914,109.1937z"/>
		</g>
		<g>
			<g>
				<path fill="#27348B" d="M171.09827,154.9827c0.74878-0.56223,1.22481-1.50272,1.22481-2.5191      c0-0.81955-0.32164-1.57347-0.92633-2.18074c-0.7668-0.76678-1.88611-1.17206-3.23444-1.17206h-7.4621v12.95575h7.64993      c1.50787,0,2.55257-0.35381,3.39398-1.14761c0.79509-0.75522,1.21709-1.71886,1.21709-2.78671      C172.96121,156.717,172.23816,155.5372,171.09827,154.9827z M168.21892,154.36772h-5.19002v-3.11607h4.96616      c0.69217,0,1.18364,0.16081,1.53102,0.49019c0.26761,0.2869,0.4117,0.6407,0.4117,1.02025      c0,0.44128-0.16983,0.85428-0.48117,1.16434C169.09378,154.29053,168.58173,154.36772,168.21892,154.36772z       M168.40675,159.92569h-5.37785v-3.54836h5.62231c0.5455,0,1.07042,0.2213,1.44353,0.61113      c0.3062,0.30492,0.48117,0.71533,0.48117,1.12575c0,0.46187-0.19298,0.90959-0.53778,1.23639      C169.67017,159.72113,169.09122,159.92569,168.40675,159.92569z"/>
				<path fill="#27348B" d="M195.38354,153.10173c0-1.01125-0.35767-1.9247-1.03441-2.64261      c-0.86456-0.90703-2.07137-1.34833-3.6873-1.34833h-7.10701v12.95575h2.32869v-4.99446h4.44382l2.815,4.99446h2.66835      l-3.11093-5.34827C194.36716,156.10973,195.38354,154.75626,195.38354,153.10173z M185.88351,151.25165h4.77832      c0.91347,0,1.47183,0.18784,1.92471,0.64328c0.31392,0.32936,0.48631,0.75008,0.48631,1.18622      c0,1.03697-0.87744,1.85008-1.99933,1.85008h-5.19002V151.25165z"/>
				<polygon fill="#27348B" points="208.19263,156.33875 213.14848,156.33875 213.14848,154.20047 208.19263,154.20047       208.19263,151.25165 216.41638,151.25165 216.41638,149.11079 205.86394,149.11079 205.86394,162.06654 216.84866,162.06654       216.84866,159.92569 208.19263,159.92569     "/>
				<polygon fill="#27348B" points="225.12903,151.25165 229.89963,151.25165 229.89963,162.06654 232.22574,162.06654       232.22574,151.25165 236.97832,151.25165 236.97832,149.11079 225.12903,149.11079     "/>
				<path fill="#27348B" d="M251.75844,149.11079h-1.98132l-6.01343,12.95575h2.45993l1.65195-3.67958h5.6712l1.67253,3.67958      h2.55255l-5.91821-12.75505L251.75844,149.11079z M252.65131,156.37733h-3.88029l1.94016-4.28685L252.65131,156.37733z"/>
				<path fill="#27348B" d="M273.0563,150.93257c1.49756,0,3.11349,0.60469,4.1196,1.54132l0.23157,0.21614l1.66226-1.49242      l-0.30621-0.25732c-1.61594-1.36633-3.70276-2.14856-5.72522-2.14856c-3.89832,0-7.07098,3.0453-7.07098,6.78793      c0,3.81596,3.13922,6.80595,7.1456,6.80595c2.00446,0,4.20966-0.73978,5.75095-1.92986l0.13382-0.10422v-5.66476h-6.15753      v2.14085h3.98065v2.39044c-0.86972,0.62656-2.26437,1.02669-3.61526,1.02669c-3.17526,0-4.83493-2.33769-4.83493-4.64709      C268.37061,152.98209,270.42911,150.93257,273.0563,150.93257z"/>
				<polygon fill="#27348B" points="299.11191,157.9225 291.91483,149.23688 291.81189,149.11079 289.81772,149.11079       289.81772,162.06654 292.14642,162.06654 292.14642,153.25484 299.34091,161.94046 299.44382,162.06654 301.44058,162.06654       301.44058,149.11079 299.11191,149.11079     "/>
				<polygon fill="#27348B" points="315.11426,159.92569 315.11426,156.33875 320.0701,156.33875 320.0701,154.20047       315.11426,154.20047 315.11426,151.25165 323.33798,151.25165 323.33798,149.11079 312.78555,149.11079 312.78555,162.06654       323.77029,162.06654 323.77029,159.92569     "/>
			</g>
			<g>
				<rect x="336.66943" y="155.0303" fill="#27348B" width="17.92963" height="1.38949"/>
			</g>
			<g>
				<rect x="132.25417" y="155.0303" fill="#27348B" width="15.91229" height="1.38949"/>
			</g>
		</g>
		<g>
			<path fill="#27348B" d="M257.47852,90.13318c-0.16211-1.56576-0.22128-26.36438-0.22128-42.6948v-2.01863l-1.89383,0.69861     c-0.05147,0.01801-4.57762,1.68669-6.69017,2.37501c-5.67891-3.03116-19.72824-5.38429-31.07835,5.42932     c-13.56302,12.9223-12.3485,28.31996-5.48079,37.15869c4.06555,5.22862,10.6425,8.92107,18.58835,8.91978     c4.82721,0,10.15875-1.36376,15.73474-4.57375l1.90669,4.4065l10.85864-1.22996l-0.31906-1.51301     C258.88345,97.09094,257.7204,91.56384,257.47852,90.13318z M244.61282,88.5507     c-5.20032,2.43162-17.05733,3.8031-23.67287-6.74805c-7.54445-12.02814,1.90155-24.57991,1.87581-24.57991     c9.25044-8.25849,19.3886-0.56223,21.62981,1.34318C244.46873,62.50925,244.5871,83.95636,244.61282,88.5507z"/>
			<path fill="#27348B" d="M190.64897,49.86099c-8.9854-6.46501-22.81859-3.90345-30.71812,0.6613     c0.04631-3.00285,0.00514-8.6882-0.07977-19.68451l-1.19394-5.15528l-20.08592,1.20423v4.5596l9.31992,2.10997v65.17117h12.66241     V57.29993c9.4537-3.68859,16.68166-3.46216,20.92476,0.67802c6.46373,6.30162,6.22957,21.38793-0.60983,39.3703l-0.72563,1.90669     h22.79286v-4.62007l-8.21088-2.0109C203.35255,65.96883,197.31596,54.65732,190.64897,49.86099z"/>
			<path fill="#27348B" d="M117.29394,26.80567H80.71677v5.34183l8.20574,1.87582v64.76332h12.42826V34.26777     c0.89545-0.25474,3.12379-0.66387,8.20573-0.66387c5.53739,0,10.53443,1.8488,13.70454,5.07166     c2.97198,3.01829,4.43352,7.22151,4.3486,12.4913c-0.08749,5.56441-1.79605,9.81138-5.0768,12.62382     c-3.98579,3.4197-10.20764,4.65481-17.9425,3.59081l-2.48823-0.34351l2.95139,6.74291l0.74107,0.13123     c12.64954,2.22448,20.50276-1.68154,24.86938-5.34955c5.65833-4.75002,8.90562-11.93679,8.90562-19.71796     C139.5696,33.70168,128.02135,26.80567,117.29394,26.80567z"/>
			<path fill="#27348B" d="M355.78268,61.9007l-0.03857-0.0862c-4.4361-9.57465-11.29352-14.9435-19.83118-15.52632     c-0.53265-0.03602-1.06528-0.05404-1.59537-0.05404c-10.30798,0-20.22229,6.62197-23.36923,11.53023     c-5.0665,7.90211-5.60687,18.05829-1.45126,27.1672c3.71048,8.13369,10.53702,13.84605,17.81128,14.90748     c1.2171,0.17625,2.41104,0.2586,3.58438,0.25731c13.41635,0,23.66772-10.68624,23.77838-10.8046l0.03601-0.03732     l-1.37662-6.27974l-0.03088-0.14796l-0.1235,0.08878c-7.42352,5.42932-13.67368,7.53157-19.11584,6.44056     c-4.69342-0.94563-8.72037-4.28684-12.30991-10.21407l33.94742-17.19885L355.78268,61.9007z M339.34805,62.17731     c-2.95395,1.68669-17.89618,8.69206-19.24963,9.32634c-3.68988-10.19349-0.49921-15.60222,3.72849-17.26447     c1.06268-0.41685,2.2309-0.62527,3.44284-0.62527C331.79333,53.61391,336.91901,56.50483,339.34805,62.17731z"/>
			<path fill="#27348B" d="M309.43018,47.20294l-0.84656-0.24316c-12.19153-3.51362-19.56613-1.3213-23.60596,1.13475     c-1.21887,0.74171-2.19473,1.54243-2.99771,2.32113v-4.84924l-21.4111,0.81954l0.73077,4.77446l8.45792,2.07138v45.14443     h12.22241V59.69938c9.28662-7.12454,18.39392-1.49934,18.78647-1.24797l0.50433,0.32293l0.23416-0.55323     c1.66226-3.92789,3.97809-7.23566,7.2897-10.40963L309.43018,47.20294z"/>
		</g>
	</g>
</g>
</svg>