<svg xmlns="http://www.w3.org/2000/svg" xmlns:xlink="http://www.w3.org/1999/xlink" fill="none" height="130" viewBox="0 0 220 130" width="220"><radialGradient id="a" cx="0" cy="0" gradientTransform="matrix(81.7563 0 0 82.6638 110 92.0398)" gradientUnits="userSpaceOnUse" r="1"><stop offset="0" stop-color="#e63323"/><stop offset="1" stop-color="#c90c0f"/></radialGradient><clipPath id="b"><path d="m0 0h220v130h-220z"/></clipPath><g clip-path="url(#b)"><path d="m192.623 130c-53.851-25.439-111.3963-25.439-165.2458 0-4.7992-18.09-9.5984-36.1803-14.3977-54.2704 63.0794-29.9521 130.9605-29.9519 194.0405 0-4.799 18.0901-9.598 36.1804-14.397 54.2704z" fill="#36563d"/><path d="m201.106 128.047c-59.776-20.857-122.4359-20.859-182.2119 0l-18.8941-53.0634c71.8498-25.2665 148.15-25.2682 220 0z" fill="url(#a)"/><g fill="#646363"><path d="m50.1001 85.9191c1.1224 5.8374 2.2272 11.5613 2.5043 12.9408.3332-.0567.6524-.117.9505-.1631-.2665-1.3264-1.2626-6.3282-2.3043-11.7826-.3157-.3794-.6665-.8816-1.1505-.9951z"/><path d="m50.7737 71.8363c.3785-.0713.743-.1277 1.0945-.17-.908-.0642-1.9427.0177-3.1074.2424-.3298.0615-.8034.1543-1.2835.2579.2544 1.3477 1.1355 5.974 2.1034 11.0334.1995-.0317.4052-.0671.5999-.1052.1246-.0243.242-.0548.3634-.0819-.9744-5.1104-1.8503-9.7125-2.0326-10.6943.7225-.1844 1.7081-.3759 2.2623-.4823z"/><path d="m63.4461 73.8542c.6804 5.1565-3.7846 8.5561-6.7659 9.7122 3.8056 4.9863 9.9507 10.3818 14.6191 12.9423.7436.4255 1.7783.6809 2.6587.7979.0736-.0319.2069.0177.2139-.0993-.5857-.117-1.2416-.3227-1.8624-.6738-4.6685-2.564-10.8136-7.9631-14.6227-12.9458 2.9287-1.1171 7.4499-4.5592 6.7659-9.7157-.2244-1.6633-1.4696-3.7982-4.3142-4.8125-.9365-.3227-1.9466-.4256-3.0655-.4007.7261.0461 1.4135.1595 2.0589.383 2.8445 1.0107 4.0897 3.1492 4.3142 4.8124z"/><path d="m36.3406 72.3038c.1289.707.2591 1.4156.3893 2.1243l.0383.177c.349-.0605.687-.1167.9973-.1665-.1568-.845-.3121-1.5114-.4705-2.3565.0002-.0033-.3545.0794-.9544.2217z"/><path d="m28.4946 77.3016-.0029-.0001-.0568-.2167c-.3702.1006-.7053.1911-.9808.2689.5744 2.2087 2.4534 9.7812 3.0622 12.1015.7885 3.0408 2.6841 9.8935 3.7364 13.7938.315-.08.6238-.153.922-.226-.7119-2.747-2.6851-9.8361-3.654-13.553-.5917-2.2706-2.4095-9.7712-3.0261-12.1684z"/><path d="m77.7926 82.5848c.4864-1.778 2.1979-7.2901 3.2117-10.4898-.2098-.3857-.4212-.7737-.6347-1.1645-.9128 2.8426-3.1176 9.9091-3.6167 11.7751.239-.0272.5983-.0725 1.0397-.1208z"/><path d="m120.391 84.3929c.177-.3176.348-.6263.515-.9274-1.313-2.4657-2.45-4.4989-5.167-9.649-3.283-6.0306-3.893-7.2193-5.52-10.2116-.321.0073-.654.0236-.989.0338 1.614 2.9676 2.234 4.1716 5.502 10.1776 3.05 5.7804 4.107 7.6294 5.659 10.5766z"/><path d="m189.841 87.2137c1.256.3292 2.414.453 3.46.3775-.767-.0359-1.588-.1622-2.453-.3911-.776-.2035-1.701-.5228-1.701-.5228s1.781-7.0886 2.505-10.0491c-.284-.0752-.613-.1595-.947-.2405-.676 2.7875-2.565 10.3016-2.565 10.3016s.923.3179 1.701.5244z"/><path d="m165.647 84.2808c-.011-.0021-.021-.0041-.032-.0062-.082-.016-.161-.0314-.237-.0462-.03-.0057-.058-.0113-.087-.0169-.069-.0133-.135-.0262-.199-.0385-.026-.0051-.052-.0102-.078-.0151-.055-.0107-.108-.021-.159-.0309-.023-.0043-.045-.0086-.067-.0128-.066-.0128-.129-.025-.189-.0365-.003-.0006-.007-.0013-.01-.002-.386 2.2525-1.425 8.6607-1.786 10.7238.218.0405.605.1123 1.065.1964.412-2.4033 1.441-8.7231 1.779-10.7151z"/><path d="m166.906 71.2707c-.002-.0004-.004-.0007-.006-.0011-.354 2.0224-1.452 8.0808-1.869 10.2582-.001.0016.257.0468 1.072.1979.466-2.4715 1.541-8.5234 1.845-10.2694-.177-.0319-.345-.0619-.507-.0908-.03-.0052-.059-.0105-.087-.0155-.157-.0278-.307-.0545-.448-.0793z"/><path d="m181.466 71.7838c0-.0032-.4-.0917-1.065-.2333-.169.7673-.539 2.4571-.539 2.4571s.734.1955 1.057.2885c.172-.8088.37-1.7049.547-2.5123z"/><path d="m187.502 89.4036c-.247 1.123-.755 3.4331-.853 3.8408-.626 2.7805-1.61 6.7566-2.236 9.5336.329.093.648.186.941.276.653-2.873 1.655-6.9472 2.304-9.8201.079-.3258.416-1.8469.673-3.0222-.169-.3249-.42-.5982-.829-.8081z"/><path d="m176.034 86.017-.094.5024c.664.1628 1.061.2636 1.061.2636.161-.7889.319-1.5825.482-2.3764 0-.0031-.404-.0912-1.069-.2379-.128.6151-.255 1.2333-.38 1.8483z"/><path d="m75.9946 85.358c-1.4584 4.8625-1.4555 5.6742-2.2426 8.7357.3179.0269.6465.0477 1.0012.0239.7959-3.0834.8193-4.0367 2.284-8.9117-.3757.0519-.7257.1029-1.0426.1521z"/><path d="m151.937 81.0155c-.476 3.7581-1.14 9.6236-1.762 14.8606.335.0551.667.1115.986.1681.63-5.2866 1.304-11.2295 1.783-15.0325.482-3.8419 1.665-11.7805 1.914-14.0646-.291-.0302-.595-.0619-.902-.0937-.446 3.3603-1.595 10.8081-2.019 14.1621z"/><path d="m202.649 106.628c-3.174-4.29-5.47-10.1973-6.915-16.2588-.343.0303-.677.046-.998.0491 1.441 6.0531 3.739 11.9417 6.903 16.2217.961 1.337 2.04 2.016 2.57 2.036.493.02 1.442.011.913-.01-.53-.019-1.512-.701-2.473-2.038z"/><path d="m203.728 78.5496c-.645-.6245-1.409-1.1174-2.301-1.5476.362.2434.699.504 1.007.7987 2.184 2.1594 2.749 4.9631 2.277 6.573-.91 3.0502-3.304 4.5692-5.695 5.2378-.389.1545-.785.2845-1.181.3907 2.945-.2634 6.691-1.6406 7.883-5.6421.472-1.6069.199-3.6494-1.99-5.8105z"/><path d="m174.311 100.316s1.069.268 1.067.268c.179-.8297.354-1.6565.528-2.4865-.321-.0734-.677-.1594-1.071-.2425-.154.729-.524 2.461-.524 2.461z"/><path d="m106.603 73.3801c-.258 3.1131-.301 3.4915-.606 8.1144-.278 4.4112-.318 7.0366-.571 11.6417.33-.0009.663.0042 1.005.0187.254-4.6144.293-7.2429.575-11.6602.245-3.757.322-4.7117.48-6.609-.274-.4735-.564-.9678-.883-1.5056z"/><path d="m138.488 64.9298c-.361-.0114-.72-.0291-1.078-.0421.116 3.5381.376 7.9422.757 14.3809.506 8.7613.536 11.4603.78 15.3176.359.0439.706.0877 1.016.1326-.25-3.9282-.277-6.5902-.789-15.447-.42-7.1204-.593-10.5148-.686-14.342z"/><path d="m85.7084 64.6372c-.2452.0303-.5739.0757-.9469.1178 1.4613 2.553 3.9011 7.0418 6.8217 12.8908 3.2916 6.6345 7.4044 15.7056 7.4546 15.7025.0457.0001 0 0 1.0062-.0008-2.2356-4.658-4.1602-9.0679-7.4518-15.7041-2.9661-5.9337-5.4334-10.4825-6.8838-13.0062z"/><path d="m130.773 73.815c-1.13 1.7977-2.213 3.503-4.557 7.5794-3.103 5.4766-4.019 7.2096-6.432 11.7904.312.0174.627.0501.961.0953 2.45-4.6605 3.354-6.3706 6.48-11.8839 1.739-3.0218 2.782-4.741 3.666-6.1602-.044-.5328-.084-1.0139-.118-1.421z"/></g><path d="m73.7915 97.5832c-.4815.2097-2.1121.1287-3.5043-.6988-8.5022-5.0529-14.6433-13.3132-14.6433-13.3132 2.9783-1.1195 7.4722-4.3907 6.7912-9.6053-.228-1.6862-1.4672-3.8444-4.3156-4.8698-2.0933-.7291-4.5383-.4015-7.8594.216-1.8138.3375-4.1688.8905-5.4619 1.1574-2.625.5472-3.4912.6991-5.1363 1.0224.5067 2.4583 2.1211 9.6863 2.981 13.8867.7292 3.5698 2.5993 13.4931 2.9084 14.9964 1.7464-.4735 4.2166-.9992 5.9552-1.2637-.5742-2.9245-1.1803-6.1522-1.7615-9.0768-.1006-.559-.9163-4.5244-.9163-4.5244 1.4154-.4211 2.0485.1854 2.6457.9891.7984 1.0847 2.2043 2.984 4.5587 5.4958 4.1796 4.498 9.9823 7.867 14.2108 7.6482 1.9211-.101 3.1051-.8562 3.7218-1.1588.6044-.3845.3074-1.118-.1742-.9012zm-23.611-14.4884c-.7855.1536-1.7526.2643-1.7526.2643s-1.4793-8.495-1.9332-10.9629c.7196-.1869 1.7025-.3824 2.266-.4875 4.3712-.8435 6.969.2581 7.5372 3.977.5928 3.8861-1.8269 6.3709-6.1174 7.2091zm153.5255 1.5439c.472-1.6254.202-4.1373-1.979-6.322-1.625-1.5836-3.987-2.3728-7.268-3.2735-1.786-.4968-4.152-1.0341-5.432-1.3585-2.609-.659-3.457-.899-5.078-1.3265-.531 2.4488-1.973 9.7155-2.884 13.9094-.772 3.5576-3.046 13.3506-3.369 14.8574 1.771.33 4.229.941 5.921 1.467.653-2.9071 1.38-6.0706 2.029-8.9781.132-.551.985-4.5066.985-4.5066 1.509.3262 1.796 1.0713 2.012 2.0622.294 1.3377.807 3.677 1.94 6.9962 1.996 5.9173 5.244 10.2733 8.537 11.3583 1.855.606 3.194.603 3.882.597.711-.078.732-.873.202-.896-.527-.02-1.603-.708-2.566-2.06-3.228-4.42-5.559-10.5363-6.997-16.7855-.018-.0743 0 0 0 0 3.138.2688 8.583-.708 10.065-5.7408zm-14.87 2.8724c-.777-.2052-1.696-.5332-1.696-.5332s2.071-8.3582 2.651-10.7968c.731.1489 1.705.4019 2.254.5526 4.329 1.1636 6.257 3.3117 5.278 6.9352-1.03 3.7871-4.246 4.9712-8.487 3.8422zm-162.5279-10.418c.5726 2.2363 2.5883 10.3115 3.192 12.6624.9697 3.7584 2.9398 10.9315 3.6511 13.7085-1.8438.432-4.014 1.069-5.8482 1.709-.7693-2.762-2.6461-9.9622-3.6847-13.6988-.6482-2.3364-2.9806-10.3209-3.599-12.5396-1.9853.5892-6.7866 2.078-9.524 3.2406-.2512-.799-.49947-1.5949-.74603-2.3906-.00144-.0062 4.90973-1.5898 9.19303-2.8901 2.4327-.7422 4.8722-1.4519 7.3128-2.1355 4.3045-1.2107 9.396-2.3257 9.3959-2.3195.1823.8144.2278 1.4446.4132 2.2607-2.8882.5271-7.7267 1.8136-9.7561 2.3929zm64.2683.7296c-2.9674-6.0006-5.4342-10.6112-6.8863-13.1611-.9996.1277-3.4338.4185-4.6158.4681-1.0663 2.9719-2.8821 7.7777-4.8498 14.2108-2.1781 7.3624-4.2405 14.6999-4.1703 14.7531.2104.1702 2.0939 1.3582 2.6235 1.4965.1158 0 .8488-5.0536 2.3395-10.0646 1.2136-.2377 3.7425-.5604 6.1521-.8193 1.9993-.2234 4.7456-.4433 6.0925-.5603 2.2202 4.6564 3.4215 7.4563 4.4142 9.5735 1.2627-.1808 4.6053-.3972 6.2363-.3936-2.2343-4.7096-4.0424-8.7934-7.3359-15.5031zm-9.8455 4.5677c-2.101.2306-4.202.4504-4.9841.5497.6278-2.3832 3.9669-13.1252 4.0125-13.1252 2.2799 4.1564 4.3177 7.9475 6.3626 11.9939-1.1961.1064-3.6653.3866-5.391.5816zm51.1051 11.478c-.115-3.0549-.167-4.4832-.471-11.8199-.179-3.6323-.705-9.5595-.708-9.5595-1.555 2.5412-2.51 3.94-5.448 9.1114-3.125 5.5779-3.806 6.897-6.258 11.6113-.753-.1048-1.391-.1596-2.186-.0538-2.094-4.5769-2.188-4.6251-5.414-11.0418-2.365-4.6186-3.183-6.1532-5.63-10.2061-.379 4.7151-.383 4.429-.734 9.7905-.278 4.4696-.307 6.8236-.56 11.4919-1.154-.0519-2.189-.02-3.342.1067.353-4.9215.503-7.6056 1.036-14.8447.505-7.1179.819-10.0886 1.053-14.7584 1.796.0313 3.498-.0396 5.03-.0961 1.63 3.0292 2.239 4.2301 5.52 10.3333 3.318 6.3601 4.278 8.0157 6.078 11.5121 1.948-3.4666 3.002-5.5002 5.551-9.9279 3.076-5.3305 5.07-8.6106 6.588-11.1907 1.388.2166 2.96.2927 4.537.3456.091 3.8718.259 6.8965.682 14.0955.509 8.9612.534 11.6509.789 15.627-1.7-.2493-4.2-.4682-6.113-.5264zm11.389 1.1623c.608-5.392 1.317-11.2787 1.718-15.0526.402-3.814 1.146-12.1069 1.378-14.2982 2.035.3177 4.51.6334 6.52.8302-.247 2.3136-1.428 10.3421-1.913 14.2303-.48 3.8433-1.133 9.6992-1.767 15.0446-1.845-.3389-4.028-.6167-5.936-.7543zm21.175 3.2425c-3.257-.6754-8.978-1.5725-8.981-1.56.819-5.1187 1.779-10.4601 2.354-14.2253.577-3.8022 1.499-10.7116 2.123-14.8367 0 0 4.296.5737 8.437 1.3866 4.402.8288 11.117 2.2815 11.116 2.2985-.18.8165-.353 1.6346-.528 2.4513-3.495-1.0174-10.964-2.3388-12.979-2.685-.295 1.7165-1.48 8.3328-1.918 10.6428 0 0 .454.0781 2.111.402 3.934.7477 9.521 1.9301 9.518 1.9378-.16.7644-.325 1.5318-.485 2.296.002-.0045-5.261-1.2862-9.419-2.0806-1.645-.3208-2.096-.4019-2.096-.4035-.303 1.7581-1.474 9.0361-1.858 11.2725.514.0965 1.945.3675 3.13.6043 4.435.8873 7.287 1.4122 9.102 1.832-.178.818-.352 1.7332-.529 2.5481 0-.006-5.087-1.0974-9.098-1.8808z" fill="#fff"/><path d="m76.6332 108.6-.9155-7.41c-.0237-.191-.041-.234-.0899-.343l2.7701-.361c2.6896-.339 4.4328.984 4.7557 3.597.2921 2.365-1.1213 4.19-3.4601 4.486l-3.0871.39c.0445-.12.0491-.178.0268-.359zm1.539-.617.9706-.122c.5146-.065.9477-.212 1.2207-.406.8743-.614 1.2682-1.751 1.0887-3.203-.1933-1.566-.7794-2.464-1.8842-2.85-.4095-.143-.8794-.198-1.3941-.133l-.8171.115zm7.1225-.427-.6938-7.434c-.019-.204-.0233-.2491-.1031-.344l4.5155-.4405.0675.7235c-.1663-.007-.3326-.014-.4852 0l-2.3697.225.2805 3.006 2.3814-.227c.1995-.018.304-.04.4652-.089l.0674.723c-.1791-.017-.2613-.01-.4725.011l-2.3814.226.2877 3.084 2.3581-.224c.2463-.023.3275-.042.4885-.091l.0728.779-4.5166.429c.048-.118.0545-.176.0377-.357zm6.1807-.564-.4931-7.4488c-.0126-.1925-.0282-.2486-.0702-.3477l2.9153-.2085c1.6345-.1108 2.7284.7135 2.8205 2.106.1026 1.551-1.0022 2.524-3.0363 2.662l-.7525.05.2038 3.08c.0126.192.0282.248.0702.347l-1.705.115c.0521-.105.0593-.174.0473-.355zm1.3261-3.876.588-.04c.4233-.029.7597-.12.9535-.224.4869-.317.742-.925.6949-1.639-.0713-1.075-.6717-1.5804-1.8356-1.5015l-.6233.0416zm6.8733-4.4407c-.0437.1039-.0531.1725-.0469.354l.1745 5.1377c.0154.454.0985.814.2606 1.07.362.589 1.117.937 2.024.906 1.425-.05 2.258-.885 2.212-2.224l-.171-5.047c-.006-.1704-.02-.2375-.071-.3498l.836-.029c-.055.1039-.064.1953-.059.3539l.172 5.0359c.063 1.86-1.162 2.959-3.4 3.037-1.9906.07-3.3349-.962-3.3907-2.606l-.1776-5.2293c-.0062-.1815-.0204-.2494-.0827-.3491zm9.0242-.2085c-.046.1143-.057.1822-.056.3526l.064 7.4666c.001.193.014.25.062.351l-1.697.015c.046-.103.045-.17.044-.352l-.064-7.4668c-.001-.1814-.013-.2382-.073-.3511zm1.89 6.5912c.385.345.548.472.876.635.352.175.822.294 1.175.298.884.011 1.539-.548 1.549-1.32.003-.283-.064-.545-.203-.729-.209-.309-.502-.482-1.591-.984-.399-.198-.738-.384-1.031-.569-.619-.428-.953-1.056-.944-1.771.016-1.3844 1.183-2.3001 2.903-2.2793.413.0055.801.0554 1.201.1628.282.0602.446.1302.833.3054l-.283.9497c-.187-.1275-.304-.2078-.398-.2549-.433-.2549-.996-.4323-1.42-.4371-.755-.0097-1.327.4828-1.335 1.1294-.002.239.054.444.158.593.197.308.548.528 1.568.983.41.187.75.362 1.042.558.667.417 1.035 1.136 1.025 1.931-.019 1.52-1.245 2.538-3.001 2.516-.495-.006-.977-.091-1.447-.233-.329-.095-.54-.189-.985-.421zm13.014-6.364c-.042.1455-.06.2577-.066.3942l-.379 7.5578c-.009.181-.001.25.03.354l-1.683-.087c.064-.11.066-.156.076-.348l.33-6.5951-1.503.5701.028-.5666c.011-.2265.001-.2612-.042-.3429zm2.21 2.224c.099-1.3464 1.033-2.0051 2.643-1.8846 1.481.1102 2.283.9434 2.186 2.2676-.071.962-.559 1.494-1.442 1.611 1.119.378 1.519 1.034 1.424 2.335-.119 1.618-1.056 2.311-2.948 2.17-1.728-.129-2.526-1.007-2.406-2.637.09-1.233.606-1.821 1.756-2.03-.88-.248-1.285-.848-1.213-1.832zm1.004 4.034c-.085 1.154.23 1.69 1.006 1.748.776.057 1.166-.426 1.247-1.534.088-1.199-.225-1.769-1-1.827-.764-.057-1.168.459-1.253 1.613zm.451-3.891c-.073.995.209 1.495.856 1.542.646.049 1.011-.413 1.08-1.363.074-1.008-.198-1.4834-.868-1.5333-.658-.0492-.997.3813-1.068 1.3543zm9.748-.362c-.306-.146-.456-.185-.667-.206-1.231-.128-2.122.83-2.338 2.507.509-.472 1.075-.676 1.72-.609 1.29.133 1.99 1.301 1.816 3.016-.182 1.806-1.292 2.821-2.91 2.653-1.829-.189-2.596-1.511-2.34-4.051.287-2.845 1.828-4.4879 3.997-4.2635.176.018.304.0429.591.1295zm-3.137 3.245c-.057.336-.072.483-.091.675-.042.418-.055.896-.02 1.367.065.885.364 1.327.938 1.386.739.077 1.202-.629 1.346-2.062.13-1.287-.181-2.072-.85-2.141-.493-.051-.959.231-1.323.775zm5.081 2.682c.154.284.224.384.368.552.442.448.986.748 1.559.824.935.123 1.716-.495 1.838-1.44.066-.518-.038-.91-.285-1.205-.322-.363-.844-.65-1.264-.705-.269-.036-.496-.032-.715.009l.127-.98c.157.067.216.074.438.104 1.145.151 1.906-.31 2.02-1.199.102-.787-.418-1.36-1.307-1.477-.666-.088-1.309.102-1.975.563l.058-1.091c1.104-.266 1.789-.325 2.572-.221 1.555.205 2.413 1.108 2.255 2.335-.136 1.058-1.002 1.688-2.297 1.689.531.115.88.264 1.195.5.627.484.888 1.136.783 1.947-.191 1.485-1.371 2.246-3.124 2.015-.76-.101-1.545-.376-2.105-.736-.198-.118-.295-.199-.541-.415zm-95.0176 4.098c2.1769-.598 4.3679-1.142 6.5624-1.675 2.1984-.515 4.4034-1.003 6.6145-1.465 2.2119-.455 4.4163-.974 6.6594-1.252 2.2413-.285 4.4931-.5 6.7661-.509l.0139.105c-2.1954.591-4.4048 1.03-6.6162 1.455-2.2096.431-4.4495.676-6.6721 1.039-2.2234.355-4.4432.738-6.6588 1.148-2.2194.392-4.4314.826-6.6454 1.258zm132.1156 0c-2.177-.598-4.368-1.142-6.563-1.675-2.198-.515-4.403-1.003-6.614-1.465-2.212-.455-4.416-.974-6.66-1.252-2.241-.285-4.493-.5-6.766-.509l-.014.105c2.196.591 4.405 1.03 6.617 1.455 2.209.431 4.449.676 6.672 1.039 2.223.355 4.443.738 6.659 1.148 2.219.392 4.431.826 6.645 1.258z" fill="#fff"/><path d="m98.9788 7.70542c-.5323.67027-.991 1.05276-1.3626 1.28972.0134-.73117-.1172-1.43527-.3281-2.07843.2076-.35206.4051-.69735.5356-.93429 1.2555-2.29511 1.5937-2.49481 2.0356-1.9566.1272.24374.2007 2.31542-.8805 3.6796z" fill="#36563d"/><path d="m138.033 17.7626c-1.042 1.0663-1.785 1.3743-2.227 1.5571-.06.0237-.12.0508-.181.0779.014-.4943-.02-.9445-.073-1.3202.485-.5823.974-1.3135 1.543-2.0379 1.59-2.2037 1.945-2.4271 2.34-1.8652.097.237-.11 2.2681-1.402 3.5883z" fill="#36563d"/><path d="m83.1297 25.159c-.1506.0643-.328.1455-.5323.2369l-.0301.0136c-.5055.2268-1.3425.6025-3.0064.6093h-.0134c-.1574 0-.3147-.0068-.4654-.0237.0234-.0542.0502-.1049.0736-.1523.0871-.2133.2478-.6059.2478-.6059.0469-.1151.0201-.2472-.0636-.3352-.1038-.1117-.2679-.1658-.452-.1523-.2611.0237-.5122.176-.683.4265-.1138.1659-.2778.325-.4921.4773-1.2053-.4739-2.0456-1.2626-2.1259-1.4691-.0603-.1591-.0503-.3318.0267-.4875.0201-.044.0503-.088.0837-.1252.2177-.2505.4051-.4604 3.3111 0 .6261.1015 1.8347.2505 2.5545.3351.1105.1117.2243.22.3449.3216.3984.3351.8068.6466 1.2219.9309z" fill="#70a83f"/><path d="m131.209 10.9856c-.09 1.8381-.576 2.7724-.863 3.3343l-.021.0372c-.18.3453-.328.6331-.418.8192-.04.0745-.09.1625-.144.2539-.154-.9106-.599-1.7095-1.081-2.3323-.061-.7989-.168-2.0344-.248-2.6844-.368-2.96535-.181-3.36818.151-3.63898.043-.03723.09-.06771.14-.09138.168-.08126.352-.0948.526-.03725.348.1151 2.072 1.9769 1.958 4.33971z" fill="#70a83f"/><path d="m79.4035 25.2369s-.1607.3926-.2477.6059c-.0235.0474-.0502.0981-.0737.1523-.0669.132-.1439.2945-.231.4807-.2176.457-.5558 1.1746-1.6807 2.0751-.9474.7582-2.1761.9512-2.9796.9512-.4118 0-.7131-.0508-.8002-.1016-.1372-.0812-.2343-.2065-.2745-.3588-.0134-.0474-.0201-.0982-.0201-.1456-.0033-.3554.1038-.633 2.2465-1.8178.7064-.3892 2.1694-1.2829 2.3067-1.3811.0201-.0135.0435-.0305.0636-.044.2143-.1523.3783-.3114.4922-.4773.1707-.2505.4218-.4028.6829-.4265.1842-.0136.3482.0406.452.1523.0837.088.1105.2201.0636.3352z" fill="#36563d"/><path d="m114.644 1.18572c-.02.42992-1.236 3.27679-3.204 4.23815-1.058.51793-1.821.6364-2.377.6364-.285 0-.516-.03047-.703-.05754l-.037-.00678c-.194-.02708-.368-.04739-.516-.0677.077-.23696.151-.45359.215-.63979.16-.46713.301-.89026.425-1.27278.495-.32498 2.019-1.37774 2.718-1.91259 2.545-1.936266 2.886-1.84827 3.234-1.553769.044.037252.081.08126.114.128636.094.142189.141.321588.131.507763z" fill="#70a83f"/><path d="m125.18 11.121-.014.0338c-.04.1118-.077.2167-.113.3115-.469-.4502-.975-.9377-1.289-1.2695-.305-.31813-.576-.58895-.814-.81914-.231-.70072-.509-1.51652-.706-2.03106-1.142-3.02628-.985-3.35123-.633-3.62881.05-.04062.104-.0711.157-.09141.158-.06431.345-.0677.529-.01014.382.12861 2.672 2.06151 3.077 4.27536.331 1.80087.003 2.6945-.194 3.2294z" fill="#36563d"/><path d="m91.2687 19.5533c-.0402 0-.077.0034-.1139.0034-.2845-.0102-.6997-.017-1.2052-.0271h-.0536c-.8001-.0136-2.1393-.0339-4.2217-1.0968-2.598-1.3236-3.5957-4.5157-3.512-4.9727.0368-.1997.1473-.3758.3114-.4942.0468-.0373.1037-.0677.1606-.0948.3449-.1456.6964-.2979 3.0299 1.4014l.0067.0034.9575.7143.0067.0067c.0101.0068.0201.017.0302.0237.3984.3047 1.011.7481 1.6237 1.1848-.5825.0136-.991.088-1.0713.1388-.6428.6059-.3683 1.0189 2.8223 2.5794.318.1558.7633.3859 1.2287.6297z" fill="#70a83f"/><path d="m108.969 30.7681c-.16.325-.335.7075-.535 1.1577-.262.589-.777 1.6486-1.145 2.3865.02-.1997.03-.4096-.027-.6127-.034-.1997-.445-1.9058-.66-2.6404-.689-2.3797-.562-2.6641-.298-2.9281.158-.1557.385-.22.6-.1692.348.0778 1.68 1.2491 2.065 2.8062z" fill="#36563d"/><path d="m132.418 32.5284c.007.2741-.941 2.1563-2.675 2.8908-1.376.562-1.982.5721-2.729.5653h-.033c-.402.0034-.914-.0203-1.249-.044.214-.2674.479-.5957.74-.9173.884-.2945 1.882-1.0257 3.007-1.6621 2.36-1.4421 2.433-1.354 2.792-1.1442.093.0779.144.1896.147.3115z" fill="#36563d"/><path d="m87.3515 28.6693c-.365.5755-.7031 1.046-1.8983 1.8483-.8738.5586-1.9217.7109-2.6918.7109-.7532-.044-1.2387.0169-1.2387-.5281.0301-.2403.0569-.4672 2.4038-1.4928.1206-.0542.2645-.1185.4252-.1896.2879-.0372.606-.0745.9575-.1219.5022-.0643 1.3024-.1523 2.0423-.2268z" fill="#36563d"/><path d="m78.1716 36.9425c-.2444.1896-.5591.3588-.7299.6026-.1339.1489-1.2186 1.5402-1.6639 2.1732-1.3626 1.8787-1.8079 2.3865-2.2465 1.6925-.097-.2572.0804-2.3323 1.3091-3.5543.3716-.3554.6763-.6059.9441-.7921.1272.0237.2946.0372.5156.0372.4051 0 .9943-.0474 1.8715-.1591z" fill="#36563d"/><path d="m81.3018 33.8892c-.2947-.0203-.6127-.0271-.9609-.0237-1.0312.0067-1.9987.2809-2.8156.6364-.144-.017-.2779-.0339-.3951-.0474-3.224-.4029-3.2307-.5281-3.3713-.958-.0134-.1287.0267-.2539.1205-.3554.2142-.2302 2.5478-1.1577 4.6503-.5891 1.6137.4435 2.3067.9614 2.7721 1.3372z" fill="#36563d"/><path d="m126.482 24.0419c-.054.044-.104.0779-.147.1083l.11-.1218c.013.0067.023.0135.037.0135z" fill="#36563d"/><path d="m137.587 30.7783c-.174.1827-1.657.8225-3.301.8225-.395 0-.8-.0372-1.195-.1252-1.627-.3622-2.307-.87-2.715-1.1713-.245-.1726-.506-.3757-.733-.5551.699-.2573 1.322-.4266 1.884-.5213.148-.0237.325-.0339.533-.044.743.0812 1.804.1929 2.39.2369 2.99.2607 3.134.3318 3.301.9038.02.1592-.04.325-.164.4537z" fill="#70a83f"/><path d="m103.355 30.7106c-.061.5585-.101 1.1543-.114 1.7839-.308-.2133-.75-.5416-1.065-.7921-.479-.369-1.188-.8937-1.942-2.4102-.937-1.9024-.19-4.1908.054-4.4379.151-.1591.388-.2301.599-.1828.392.0847.683.325 1.447 2.9654.244.8463.883 2.7487.97 2.9552.017.0406.034.0812.051.1185z" fill="#70a83f"/><path d="m110.412 33.9095c-1.058 1.5876-1.915 2.1055-2.491 2.4677-.167.1083-.355.2268-.546.3419-.297-.3554-.569-.7312-.816-1.1272.117-.1422.224-.3081.324-.4909.047-.0812.205-.3893.405-.7887.369-.7379.884-1.7975 1.145-2.3865.201-.4502.375-.8327.536-1.1577.897-1.8584 1.182-1.8957 1.477-1.9397.231-.0304.468.061.612.2471.225.2912.676 2.8401-.646 4.834z" fill="#70a83f"/><path d="m116.857 27.9483c-.549-.0169-.76-.5991-1.282-.8293-.158-.0914-1.735-.8632-2.488-1.1882-2.38-1.0765-2.461-1.2017-2.437-1.7738.027-.1523.12-.2877.254-.3757.251-.1659 2.377-.4841 3.934.5382.938.6127 1.393 1.1577 1.664 1.5639.181.6432.301 1.3473.355 2.0649z" fill="#70a83f"/><path d="m122.421 22.9993c-.288.9546-.844 3.1448-.887 3.3953-.05.1658-.067.3249-.067.484-.362.4638-.713.958-1.048 1.459-.161-.3622-.435-1.0832-.599-1.5808-.204-.5721-.549-1.5233-.328-3.3648.278-2.3391 2.333-4.1197 2.705-4.2213.234-.0676.492-.0067.666.1592.318.3046.449.7041-.442 3.6694z" fill="#70a83f"/><path d="m120.473 12.0045c-.168-.1523-.406-.1997-.627-.132-.344.1083-2.226 1.8279-2.427 4.0316-.144 1.6012.141 2.4813.352 3.0229.097-.4299.247-.8903.475-1.3642.536-1.1137 1.306-1.9329 2.002-2.4576.653-2.4846.519-2.8367.225-3.1007z" fill="#70a83f"/><path d="m95.9122 27.251c-.134.3453-.2645.7413-.3851 1.1814-.01-.0034-.0201-.0068-.0301-.0102-.9943-.4976-1.5233-.5145-2.7553-1.9329-1.1718-1.4082-.991-3.4629-.837-3.7168.1105-.1794.308-.2877.5155-.2843.3382 0 .6362.1489 1.6774 1.9531.0468.0745.0904.1558.1372.237.6261.9918 1.1216 2.0074 1.6774 2.5727z" fill="#70a83f"/><path d="m106.127 20.8125v.0068c-.044.1896-.087.3927-.134.6195-.151.7447-.573 2.4372-.64 2.6268-.087.2945-.207.545-.358.738-.09.1184-.15.2471-.174.3723-.171-.2065-.261-.4976-.251-.7853.007-.3148-.064-.6635-.211-1.0392-.09-.2607-1.038-2.4204-1.496-3.3479-1.49-3.0195-1.611-3.8015-.473-3.9538.386.0237 2.833 1.459 3.502 3.7744.104.3622.178.6905.235.9884z" fill="#70a83f"/><path d="m85.4465 36.3366c-.5324.0101-1.1183-.2268-1.7075-.1219-.3147.0169-2.9897.3385-4.1481.5213-.5424.0847-1.0111.1524-1.4195.2065-.8772.1117-1.4664.1591-1.8715.1591-.221 0-.3884-.0135-.5156-.0372-.2879-.0508-.3816-.149-.4787-.2505-.1775-.1862-.2344-.4638-.1306-.7007.0904-.2167 1.0111-1.0257 2.3502-1.6113.8169-.3555 1.7845-.6297 2.8157-.6364.3481-.0034.6662.0034.9608.0237.5122.0304.9441.088 1.3191.1624.3448.5958 1.3593 1.8212 2.8257 2.285z" fill="#70a83f"/><path d="m112.789 19.1301c-.007.0203-.013.0406-.02.061-.01-.017-.02-.0373-.03-.0542l-.024-.0406c-.231-.4265-.579-1.0731-1.459-1.855v-.0034c-.161-.518-.348-1.107-.482-1.4793-.794-2.224-.703-2.5456-.462-2.813.134-.1524.344-.2235.545-.1896.295.0508 1.972 1.2694 2.27 3.0669.271 1.855-.067 2.2612-.338 3.3072z" fill="#70a83f"/><path d="m90.3982 28.6592c-.3917-.0711-.8035-.2099-1.2421-.1456-.154.0034-.9408.0711-1.8045.1557-.7399.0745-1.5401.1625-2.0423.2268-.3515.0474-.6695.0847-.9575.1219-.8805.1016-1.4864.1422-1.9116.1422-.8437 0-.9709-.1659-1.1082-.3419-.154-.1997-.1808-.4638-.0703-.694.1306-.2775 1.6907-1.5402 3.6225-1.943.4251-.088.8671-.1354 1.3157-.1219.4587.0136.8604.0474 1.2186.0982.4453.0609.8203.1456 1.1383.2403.1708.0508.3214.1016.4621.1557.1238.0474.2377.0948.3414.1388.0469.0204.0904.0407.1306.061.0335.0135.067.0304.0971.0474.0636.0304.1239.0609.1808.088.0201.0101.0368.0169.0569.0271.1005.5517.2779 1.1577.5725 1.7433z" fill="#70a83f"/><path d="m127.346 33.9806c-.228.2572-.549.6465-.874 1.0426-.261.3216-.526.6499-.74.9173-.238.2979-.412.5213-.458.589-.252.3419-.385.6331-.452.8531-.228-.0034-.436-.0068-.63-.0068.024-.3047.054-.6466.094-.9377.06-.572.134-1.4048 1.008-2.8333 1.071-1.7365 3.334-2.4305 3.535-2.4034.117.0169.211.088.251.193.067.176.157.4163-1.734 2.5862z" fill="#70a83f"/><path d="m139.991 41.8171c-.603 1.0527-1.543.2877-3.475-1.2221-.71-.572-2.414-1.811-2.618-1.9329-.385-.3215-.968-.3249-1.353-.5551.841-.2471 1.55-.5213 2.056-.7346.06-.0101.117-.0203.177-.0372.124-.0339.295-.0812.502-.1388.62.0812 1.407.2843 2.421.8124 1.979 1.0359 2.414 3.4664 2.29 3.8083z" fill="#70a83f"/><path d="m144.959 24.2653c-.04.2911-1.218 2.0886-3.036 2.6641-.002 0-.005.0011-.007.0034-.961-.3859-2.37-.7312-4.001-.7515.375-.2607.898-.1422 1.363-.3757.201-.0745 1.865-.826 2.581-1.1848 2.397-1.1645 2.555-1.1578 2.976-.7989.101.1185.148.2809.124.4434z" fill="#70a83f"/><path d="m135.625 19.3976c-.023 1.0832-.257 2.3729-.957 3.5069-1.232 1.9837-2.257 2.6472-2.95 3.1143-.609.4299-1.493.9783-1.878 1.2017-.047.0271-.1.044-.151.044.362-.7481.519-1.5436.563-2.2646.087-.1286.167-.2674.241-.4164.157-.2877 1.319-2.8401 1.778-3.9741 1.5-3.7067 1.885-3.7744 2.293-3.8455.258-.044.529.0508.696.2539.087.105.211.4943.292 1.0596.053.3757.087.8259.073 1.3202z" fill="#70a83f"/><path d="m145.388 37.5281c-1.162-1.1069-1.701-1.09-2.595-1.3743 0 0-.003 0-.006-.0034-.76-.3487-1.812-.7176-2.937-.8497-.478.1151-.85.2099-.947.2404-.445.1252-.76.2809-.978.4197-.03.0204-.06.0407-.087.061-.442.3114-.87.1963-.944.0507.057-.0676.134-.1489.225-.2437.137-.1421.301-.3114.472-.4807-1.239.1591-1.905.4536-2.341.65l-.036.0169c-.305.1388-.56.2505-.757.3351-.496.132-1.098.3216-1.684.5179.023-.0237.04-.0507.06-.0778.174-.2573.439-.5078.797-.7447.218-.1557 2.267-1.4049 3.194-1.9194 2.966-1.6519 2.929-1.9363 2.896-2.2138-.003-.0407-.017-.0813-.034-.1219-.053-.1151-.157-.2099-.294-.2607-.248-.0947-3.157-.115-5.025 1.3642-1.46 1.1611-1.842 2.0277-2.069 2.549l-.014.0372c-.114.2573-.211.4774-.291.65-.037.0237-.074.0508-.111.0812-1.456 1.1679-3.538 1.3202-5.028 1.2424-.844-.044-1.493-.0644-2.032-.0711-.228-.0034-.436-.0068-.63-.0068-.298 0-.562 0-.817.0034-.539.0068-1.044.0135-1.737-.0136-.221-.0033-.482-.027-.764-.0473-1.014-.0779-2.387-.1828-3.592.132.281-.2641.733-.6669 1.145-1.0291.352-.1489.77-.3791 1.269-.7616.318-.2438.572-.5383.773-.8429h.004c.442-.2742.95-.5653 1.503-.8802 1.369-.7819 2.919-1.6688 4.215-2.7385.633-.2607 1.306-.545 1.875-.7989.566-.2572 1.091-.4773 1.577-.6499.699-.2573 1.322-.4265 1.884-.5213.148-.0237.325-.0339.533-.044.03-.0034.063-.0034.097-.0068l.08-.0034c.104-.0101.332-.0338.646-.0643 1.219-.1253 3.737-.3859 5.016-.3656.78.0135 1.443.0271 2.015.0305h.003c.024.0508.051.1083.081.1659.177.3452.475.9207 1.403 1.6451.786.6127 1.811.765 2.44.765.295 0 .502-.0338.563-.0677.083-.0507.144-.132.167-.2301.007-.0305.01-.061.007-.0915-.007-.2064-.014-.3994-1.838-1.3912-.335-.1828-.908-.5213-1.349-.7854 1.771-.0067 1.961-.1083 2.045-.369.02-.071.02-.1421.017-.2064-.007-.2607-.191-.5213-.549-.7685-.228-.1624-.566-.3385-.988-.5077-.961-.3859-2.37-.7312-4.001-.7515-.472-.0068-.957.0101-1.459.0643-.305.0339-.596.0779-.877.132.113-.1828.254-.369.421-.5585.181-.2167 1.949-2.0345 2.756-2.8029 2.578-2.444 2.501-2.7487 2.424-3.0466-.01-.044-.027-.0846-.051-.1252-.07-.1219-.19-.2099-.338-.2437-.254-.061-3.083.4942-4.64 2.5422-1.212 1.5977-1.436 2.6539-1.57 3.2835l-.007.044c-.087.3995-.157.7312-.211.9512-.013.0779-.027.1693-.04.2641-1.065.3317-1.892.765-2.518 1.0933-.318.1659-.616.325-.8.3792l-.087.0305c-.027.0067-.05.0169-.077.0237-.656.1726-1.403.3825-2.206.6837.281-.3486.576-.7785.88-1.3032.064-.1084.121-.2167.174-.3284.362-.7481.519-1.5436.563-2.2646.08-1.2897-.204-2.3527-.352-2.5185-.097-.1083-.231-.1727-.378-.1794-.043-.0034-.09 0-.134.0101-.301.0576-.639.1253-1.855 3.402-.381 1.0291-1.352 3.3377-1.483 3.595-.147.3148-.321.5856-.515.8091-.566-.0474-1.37.0135-1.634.3114-.948 1.0731-1.882 1.7399-2.712 2.1902-.003-.0136-.007-.0271-.01-.0373-.395-.677-.84-.4638-2.153.9343h-.003c-.074.0169-.127.0271-.171.0339.117-.2506.526-.8226 1.55-1.828.446-.4401.944-.9309 1.269-1.2356.134-.1252.241-.2674.338-.4299.412-.044.968-.1625 1.704-.4976 1.443-.6533 2.163-2.2714 2.146-2.5049-.006-.0982-.053-.1862-.13-.2472-.024-.0203-.05-.0372-.074-.0473-.187-.0881-.378-.1761-2.236 1.0696-.117.0779-.265.1761-.429.2776.348-.6025.844-1.3168 1.621-2.1665.448-.4908 1.168-1.1915 1.724-1.7907l.11-.1218c.014.0067.024.0135.037.0135.07.0271.147.0271.221 0 .224-.0948.355-.2945.399-.5247.207-.1862.405-.3656.529-.4807.17-.1523 1.781-1.398 2.51-1.9125 2.344-1.6655 2.317-1.9262 2.29-2.18-.016-.1659-.127-.3047-.281-.3656-.204-.0813-1.486.0033-2.718.6059.033-.0982.063-.193.09-.281.201-.6194.516-1.5233.265-3.3411-.007-.044-.014-.088-.024-.132-.154-.9106-.599-1.7095-1.081-2.3323-.646-.8361-1.363-1.3541-1.554-1.3913-.177-.0338-.365.0203-.488.1523-.121.1253-.238.2539-.131.9106 0 .0068.003.0136.003.0203.064.3589.188.8734.415 1.6215.004.0068.004.0102.007.0169.077.2573.168.545.271.8632.308.9343.911 3.0906.958 3.3445.09.3859.11.7447.06 1.0562-.02.1049-.02.2132-.007.3182-.023.0203-.046.0406-.07.0643-.901.9275-1.242 1.4793-1.473 2.0243-.03-.0982-.057-.2031-.077-.3148-.044-.2065-.345-2.3019-.442-3.287-.281-2.9213-.542-3.2327-.941-3.3919-.217-.088-.472-.0575-.666.0847-.301.22-1.52 2.4948-.914 4.6646.479 1.6994 1.138 2.4272 1.533 2.8638.164.1896.369.4096.566.6229-.994.413-1.406.8056-1.553.9884-.894.4638-1.832 1.4184-2.712 2.549-.362.4638-.713.958-1.048 1.459-.516.7684-.991 1.5538-1.406 2.2816.017-.6263.258-2.3865.261-2.4001.181-1.1881-.479-2.5219-1.269-3.6423.014-.1388.027-.2742.037-.4029.077-1.0561.231-1.8618.472-2.4643.04-.105.111-.2268.191-.369l.027-.0474c.033-.0609.1-.1997.194-.396.361-.7414 1.108-2.2816 1.583-2.9789 1.942-2.8401 2.036-3.0636 1.808-3.3242-.04-.044-.087-.0745-.13-.1049-.184-.1151-.432-.1287-.74-.044-.305.088-.737.308-1.199.66-.696.5247-1.466 1.3439-2.002 2.4576-.227.4739-.378.9343-.475 1.3642-.178.7786-.188 1.4658-.198 1.9837-.003.2505-.006.4874-.037.6127l-.01.0609c-.003.0169-.006.0339-.013.0508-.144.5146-.295 1.1239-.385 1.8246-.365-.4198-.703-.7651-.941-1.002-.003-.0779-.02-.1591-.047-.2404-.077-.2234-.107-.4942-.087-.8056.004-.1963.184-1.9329.298-2.6878.365-2.4609.174-2.5964-.026-2.7419-.031-.0203-.064-.0372-.094-.0508-.107-.0372-.225-.0338-.332.0102-.08.0338-.261.2065-.475.4807-.017-.1016-.044-.2099-.087-.3149-.141-.3486-.224-.7819-.251-1.2998-.01-.1659-.027-1.0156-.037-1.9735.352-.2641.914-.7109 1.383-1.1307.495-.4265 1.232-1.0392 2.129-2.84006 1.078-2.17325.747-5.02688.489-5.42971-.171-.27419-.479-.41636-.784-.34528-.468.10832-.763.31483-1.844 3.58482-.332.99183-1.159 3.22601-1.269 3.47653-.034.0778-.067.1557-.101.2268v-.0339c.091-4.05195-.174-4.1975-.452-4.35322-.04-.0237-.087-.04062-.134-.05077-.147-.02708-.301.02031-.428.13203-.218.18278-1.781 3.0872-1.44 5.93066.268 2.224.844 3.1786 1.189 3.7507l.023.0372c.221.3656.399.6635.519.87.147.2268.409.6059.496.7312-.275.5653-.489 1.2457-.469 1.9532.023.8293.157 1.4048.315 1.8246-.442-.3453-.941-.7109-1.36-.958-.043-.0914-.087-.1794-.123-.2539-.098-.1727-.245-.4401-.419-.765-.01-.017-.02-.0373-.03-.0542l-.024-.0406c-.231-.4265-.579-1.0731-1.459-1.855v-.0034c-.255-.2268-.553-.4672-.908-.7177-.385-.2708-.796-.4773-1.211-.633.003-.0406.003-.088 0-.132-.021-.3148.033-.6703.16-1.0629.074-.2471.877-2.3899 1.272-3.314 1.259-2.96877 1.068-3.19895.881-3.42238-.027-.03385-.057-.06093-.094-.08463-.107-.07785-.244-.10831-.385-.08463-.244.04062-2.474 1.51315-3.006 3.78454-.268 1.1408-.268 1.9431-.201 2.5253-.087-.1185-.168-.2437-.245-.3758-.11-.176-.659-1.2118-1.211-2.2883.01-.3893.03-.7887.174-1.1678.077-.31824.82-2.78258 1.325-4.33635.077-.23696.151-.45359.215-.63979.16-.46713.301-.89026.425-1.27278 1.031-3.198922.834-3.493424.656-3.76086-.127-.1929327-.358-.2945022-.579-.240329-.412.094772-2.97 2.427109-3.592 5.663259-.178.93429-.262 1.71625-.285 2.37296-1.349-2.67762-1.748-2.70469-2.136-2.73178-.285-.01692-.556.11172-.723.34529-.291.39944-.837 4.00456.977 6.57728 1.463 2.0683 2.709 2.752 3.455 3.1616.037.0237.077.044.118.0677-.559.0203-.948.0948-1.025.1456-.127.0779-.214.1963-.248.3317-.01.0441-.013.088-.013.1321.01.3046.02.6194 3.104 2.092.964.4603 3.11 1.5977 3.344 1.7467.482.2809 1.252.8869 1.393 1.0663.127.1625.241.2708.365.2708h.03c.027-.0034.054-.0136.074-.0271.147.132.308.2844.492.4502.181.1625.361.3622.535.5789-.184-.0542-.368-.1117-.512-.2099-.174-.088-1.684-.9783-2.33-1.3947-2.082-1.3405-2.277-1.2491-2.481-1.1509-.13.0643-.214.2031-.211.352.007.2471.928 1.9769 2.511 2.6844 1.276.5687 2.019.5721 2.494.5755.372.0101.871.0034 1.169-.0135.211.2911.388.5517.519.721.402.5179.726 1.2389.954 2.0615.181.6432.301 1.3473.355 2.0649.08 1.0122.027 2.048-.178 2.9755-.519 2.3662-1.014 3.0771-1.064 3.1482-.047.0609-.081.132-.097.2098-.091.3859-.359.8362-.737 1.3101.004-.1828.03-.3859.077-.6026.044-.2268.586-2.2206.857-3.0804.887-2.7826.69-2.9755.499-3.1651-.027-.0271-.06-.0508-.094-.0711-.11-.0643-.241-.0778-.368-.0474-.177.0474-.857.589-1.456 1.4252-.405-.5857-.754-1.4455-1.202-2.2918-1.028-2.1123-1.155-2.207-1.708-2.1969-.147.0237-.278.1083-.368.2302-.167.2302-.492 2.1665.509 3.5814.921 1.2491 1.413 1.4489 2.123 1.8348-.144.3385-.252.7007-.302 1.0798-.221 1.6282.067 2.4779.238 2.9857l.013.0338c.111.3216.198.5856.255.7684.04.105.1.2472.15.3758-.495.501-1.058.9952-1.603 1.4353-.553 1.4319-1.021 1.6857-1.684 2.4609-.184.1828-.502.4875-.502.4875-.238.2132-.553-.0034-.637-.2878-.083-.2538-.026-.5483.151-.8124.127-.1895.228-.4299.291-.7108.007-.0204.014-.0576.024-.1084-1.031-.5382-1.925-1.2965-2.668-2.1969-.298-.3554-.57-.7312-.817-1.1272-1.41-2.2477-2.049-5.0506-1.765-7.5014v-.0034c.144-.0305.372-.0778.529-.1151.148-.0406.375-.1015.687-.1862.458-.1218 1.225-.325 2.336-1.2254 1.37-1.1103 1.751-3.0635 1.634-3.3986-.05-.1523-.16-.2708-.308-.3351-.043-.0204-.09-.0339-.14-.0407-.345-.0575-.637 0-2.24 1.8009-.496.5586-1.688 1.7907-1.835 1.9227-.147.1388-.291.2506-.435.3352.11-.4299.258-.8395.435-1.2254.037-.0847.077-.1625.114-.2404.047-.0406.094-.0812.134-.1151.114-.1151.291-.2843.532-.5145.345-.3284.918-.8734 1.433-2.1868.636-1.6316-.104-3.4562-.308-3.6254-.087-.0711-.197-.105-.315-.0948-.033.0034-.07.0101-.103.0237-.205.0711-.416.1456-.817 1.9464v.0068c-.044.1896-.087.3927-.134.6195-.151.7447-.573 2.4372-.64 2.6268-.087.2945-.207.545-.358.738-.09.1184-.151.2471-.174.3723-.013.0643-.02.1286-.013.193-.03.0575-.064.1252-.097.1997-.044-.0508-.098-.0948-.154-.1388-.235-.1726-.446-.4164-.637-.7278-.127-.1896-1.108-1.9735-1.503-2.769-1.269-2.5693-1.553-2.5828-1.828-2.5964-.04 0-.08 0-.117.0102-.127.0237-.234.0948-.311.2031-.004.0034-.004.0068-.007.0101-.134-.1591-.2912-.3452-.4821-.572.0067-.0948 0-.1896-.0167-.281-.0502-.3047-.0301-.6533.0603-1.0528.0468-.2539.6565-2.4982.9675-3.4697 1.018-3.1989.783-3.4325.536-3.6762-.161-.1591-.395-.2167-.616-.1591-.359.0948-2.4711 1.9058-2.7858 4.2212-.1339.9986-.1071 1.7264-.0201 2.285-.2611-.2438-.5122-.4638-.7466-.6601-.0134-.0102-.0268-.0237-.0502-.0474l-.0435-.0407c-.1038-.0981-.2578-.3182-.4219-.5483-.1975-.281-.4352-.6195-.7298-.9716-.2645.4367-.4955.7955-.5993.958-.2611-.0034-.4888-.0914-.6495-.3588-.3281-.5518-.0569-1.1205.0703-1.7366-.2344-.1828-.4922-.3554-.7767-.5111-1.9284-1.0799-3.8803-.9275-4.657-.5789-.308.1388-.4988.325-.5725.5552-.0201.0575-.0402.1151-.0435.1794-.0235.3724.221.5213 3.6091 1.7467.8436.3013 2.4473 1.1949 3.2207 1.6249.2008.1117.3482.1929.4151.2268l.0536.0237c.1573.0744.2912.1388.395.2065.5859.3858 1.2287 1.0256 1.9653 1.9565.0904.1117.1875.2268.2845.3453.1741.2065.3549.4198.5357.6296.3415.3961.6763.7719.9408 1.0596v.0034c.0263.853.2343 1.943.8903 2.8299.971 1.3168 1.785 1.74 2.273 1.9938l.034.017c.308.1624.562.2945.733.3892.124.061.305.1422.452.2065-.375.9716-.817 2.4576-1.024 4.3567-.061.5585-.101 1.1543-.114 1.7839-.007.4265-.004.8632.017 1.3168.023.5518.177.9986.368 1.4048.201.1083.385.2336.559.3419 1.342.8294 1.476 2.3594 1.707 3.4867.318 1.547 2.227.8158 1.035 1.3845-1.989.027-2.039-2.0412-2.595-3.3445-.093-.2268-.227-.4231-.371-.6059-.553-.3115-.955-.5315-.955-.5315-.616-.325-1.158-.6229-1.633-.897.006-.017.01-.0339.013-.0508.024-.1524.07-.3893.131-.7041.09-.4536.237-1.2085-.131-2.5422-.455-1.6486-2.1694-2.6878-2.4406-2.7081-.1138-.0068-.2276.0271-.3147.0982-.0301.0237-.0535.0507-.0736.0778-.1406.193-.2879.3893.7633 2.5896.3247.677.9976 2.2545 1.0576 2.444.03.0847.057.1659.077.2472-2.3064-1.4353-2.668-2.2071-3.3107-3.2971-.8705-1.4793-.4219-3.2734-.144-4.2788.0837-.0812.1841-.176.2979-.2843.3415-.325.9174-.8734 1.4296-2.1868.6395-1.6316-.1004-3.4562-.3046-3.6254-.0871-.0711-.2009-.105-.3147-.0948-.0335.0033-.067.0101-.1038.0237-.2244.0812-.4587.1625-.9508 2.576-.1541.7447-.5759 2.4339-.6395 2.6269-.0569.1929-.1306.3655-.2176.5145-.0435-.2133-.0703-.4333-.0302-.6669.0034-.2674.2445-2.6539.3918-3.6897.4988-3.4799.308-3.9098-.5558-3.7406-.1373.0576-.7734.7143-1.3057 1.6994-.0368-.0677-.0737-.1321-.1071-.193-.2913-.5484-.7801-1.4725-2.3436-2.5964-1.2889-.9275-2.906-1.1103-3.9572-1.0832-.5826.0136-.991.088-1.0714.1388-.6428.6059-.3682 1.0189 2.8223 2.5794.3181.1558.7634.3859 1.2287.6297.3214.1692.6462.3419.9441.5043-.703 0-2.0154-.0169-2.685-.0473-2.916-.1456-3.0734.0812-3.2575.3385-.0268.0406-.0503.0846-.067.132-.0569.1456-.0469.3114.0268.457.1306.2572 1.7175 1.3946 3.6024 1.3946.164 0 .3348-.0067.5055-.027 1.6472-.1862 2.434-.65 2.906-.9276l.0335-.0169c.2176-.1286.4118-.2403.5658-.3317.1138.1117.2176.2268.318.3385-.1473.5044-.2343 1.0528-.2176 1.6181.0168.5687.0737 1.046.154 1.4555.0469.0745.0904.1558.1373.237.606.9614 1.0914 1.9464 1.6304 2.5219 0 .0474.0034.0914.0134.1354-.1205.325-.241.6906-.3515 1.0968-.1741.6499-.3214 1.3946-.3817 2.2003-.0067.0914-.0134.1828-.0134.2708-.0602-.0677-.1171-.1388-.1741-.2133-.1774-.2166-1.5969-2.2815-2.1761-3.2124-1.8548-2.9687-2.2096-2.9518-2.5177-2.9417-.0468.0034-.0903.0102-.1372.0237-.1406.0407-.2612.1354-.3348.2675-.0603.1083-.1373.7717-.0335 1.6451-.5189-.6059-.9876-1.5504-1.5501-2.4373-1.2488-2.1698-1.5702-2.4102-2.0623-1.9024-.1239.1964-.2478 1.7163.4486 2.9823-.1674-.1456-.308-.2911-.4419-.4265-.2277-.2133-2.0824-2.268-2.8525-3.2023-2.5779-3.0872-3.07-3.2802-3.6358-2.4813-.1038.2573.0603 3.0398 1.8983 4.9016.1105.1117.2243.22.3448.3216.3984.3351.8069.6465 1.222.9309.5792.3994 1.1684.7481 1.7543 1.0223.4252-.088.8671-.1354 1.3158-.1219.4586.0136.8604.0474 1.2186.0982.4453.0609.8202.1456 1.1383.2403.1707.0508.3214.1016.462.1557.1239.0441.2377.0914.3415.1388.0469.0204.0904.0407.1306.061.0335.0169.0669.0304.0971.0474.0636.0304.1238.0609.1807.088.0201.0101.0369.0169.057.0271.1004.5517.2778 1.1577.5725 1.7433.2008.4062.4553.8023.7834 1.1645 1.3425 1.486 2.3871 1.9125 3.0098 2.1664l.0435.017c.3984.1624.7231.2978.9441.3926.0536.0203.1172.0406.1841.0677.3047.8768.8973 1.6384 1.7644 2.2579-.3348.1218-.8136.2539-.9809.2606-.3248.0136-.8303.044-1.4397.0914-.1506-.1929-.3615-.4536-.6628-.8361-1.1015-1.1475-1.2656-1.7907-3.7799-2.9078-2.3669-.9918-5.2529-.0745-5.5408.1997-.1406.1321-.2176.3047-.2176.4909.1138.6431.0804.7955 3.8033 1.7162 1.0947.2573 3.5688.9478 3.8501 1.0494.3515.1117.6562.2573.8972.4265-1.078.0982-2.233.2167-3.1805.3351-.0971-.0338-.2143-.0541-.3549-.0474-.2846.0034-.6026-.0507-.9441-.1692-.2143-.0677-2.0724-.8023-2.8725-1.1577-2.5646-1.1408-2.7889-.9885-3.0065-.8429-.0301.0203-.0602.0474-.087.0745-.0837.0948-.1239.2166-.1172.3419.0033.0541.0469.1591.1272.3012.3448.5958 1.3593 1.8212 2.8257 2.285.0669.0237.1406.044.2109.0609.7801.1997 1.3894.2607 1.8715.2607.4854 0 .8403-.061 1.1048-.1084l.0368-.0067c.3382-.0576.6127-.105.8035-.1354.0067 0 .0134-.0034.0235-.0034.8236.1015 1.5802.1862 1.8882.1828.0134 0 1.5836.0271 3.2174-.0034l.1439-.0169c1.5568-.3352 3.8803.396 5.0353.8192-.6127.0846-1.2253.1997-1.8246.3419-1.2521.2978-1.6807.176-1.9351.1049-.0837-.0237-.1507-.044-.2042-.0474-.0268-.0068-.3527-.0113-.9776-.0135l-.7466-.0271c-.5457.0135-1.5635.0609-2.2599.2031-.0535-.0609-.1272-.0948-.2042-.1016 0 0-.6127-.044-.9609-.0609-1.1717.0237-1.8547-.1456-3.1838.2302h-.0034c-.7499-.0339-1.7878.0203-3.2609.3927-2.7855.7041-4.7038 3.1413-4.7674 3.5205-.0268.1557.0167.308.1205.4231.0301.0339.067.0643.1105.0914.087.0542.1774.1117.3816.1117.4051 0 1.2555-.2133 3.3982-1.0866-.1473.4062-.1975.721-.1574.8564.4386 1.0223 1.8883.2201 3.7799-1.0426.8068-.5552 2.7118-1.7332 2.9461-1.855.3382-.1862.673-.3013.9944-.3419.2444-.0237.4787-.1253.6461-.2742h.0034c.395.0711 1.0713.1422 2.2397.2471.5926.0508 1.135.1016 1.4263.1422.9139.1422 1.6438.2268 2.233.2708.0368-.0339.0737-.0643.1105-.0914 1.3794-.9918 1.8514-.9072 2.8054-1.1442.389-.0609.579-.0948.787-.1218.382.3757.12.9342-.368 1.1035-.097.0338-.195.0846-.292.149.292.0575.603.2775.955.528.388.281.826.5958 1.352.7346.318.7921.586 2.3154 1.758 2.9924 1.041.6026 2.179 1.9024 1.62 2.6302-.077.0982-.244.2268-.442.3724-.703.5315-1.885 1.4184-1.952 3.4426-.02.6906-2.152 1.4489-2.152 1.4489-1.283.4603-2.7021.8327-3.9542 1.1611-.7968.2098-1.5501.4061-2.2063.6093-1.2019.3689-4.3088 1.0832-8.2493 1.4725-1.4764.1489-.616.8226-.616.8226h46.9778c1.068 0 .131-.8226-1.493-1.0562-1.306-.1896-4.051-.9377-4.744-1.2051-.308-.1185-2.106-.5382-3.472-1.0595-1.145-.4401-1.878-.9851-2.249-1.178-.991-.5247-1.932-1.0156-3.412-1.2525-1.584-.9174-2.323-2.1462-2.196-3.6491.07-.8633.803-1.0122 1.081-1.2864 1.025-1.0054-.077-2.224.211-2.6607.415-.6262 1.028-1.3032 1.925-1.8482-.435-.3352-.837-.6364-.904-.6804-.214-.149-.418-.2472-.612-.2945-.419-.0847-.777-.501-.586-.8937l.087-.1557.174.0067s.391.0102.602.0204c1.001.1184 1.457-.0237 2.94.7887.174.1015.335.2166.482.3419.733-.1659 1.573-.2539 2.538-.2336.261.0068.499.0068.716.0102h.004c.528.3757 1.576 1.1441 2.079 1.5469 1.586 1.2762 2.136 1.5166 2.423 1.5166.088 0 .154-.0237.215-.044.04-.0136.073-.0305.107-.0508.11-.0677.197-.1693.238-.2844.1-.2775-.241-2.1563-1.715-3.1379.124-.017.272-.0373.439-.0542.077-.0068.151-.0169.228-.0305h.006c.79-.027 1.577-.1388 2.314-.2911.017.1388.04.3385.067.5924.047.4299.127 1.1475.843 2.2714.861 1.3439 2.639 1.9193 2.983 1.9193h.034c.107-.0203.204-.0744.268-.1624.016-.0271.033-.0576.047-.088.08-.2167.157-.4164-1.443-2.18-.496-.545-1.567-1.828-1.678-1.9837-.147-.193-.254-.3825-.318-.5619.208-.0508.412-.1084.606-.1659.841-.2471 1.55-.5213 2.056-.7346.06-.0101.117-.0203.177-.0372.124-.0339.295-.0812.503-.1388.438-.1151 1.037-.264 1.687-.3927h.003c.332.2031.78.3385 1.075.6093.184.1355 1.751 1.4556 2.42 2.0582 1.758 1.5876 2.257 1.8652 2.532 1.8652.274-.0068.512-.2099.525-.501.017-.2945-.85-2.5219-2.544-3.6593-.456-.2911-.821-.501-1.132-.6567.727.0474 1.45.2031 2.076.3723.063.0711.144.1287.238.1693.177.0846.344.2234.502.4198.093.1049.977 1.3066 1.342 1.8651 1.132 1.7027 1.58 2.1902 2.196 1.4861.154-.2539.325-2.1665-.813-3.3039zm-37.949 10.9644c-2.246.9579.536 3.4697-4.349 4.3634-.954.176-2.039.2301-3.2406.2301-.9609-.4536 2.5106-.6025 3.0496-.8259 1.654-.6906 2.973-2.1394 2.973-3.4224 0-1.0595 1.48-1.8448 2.059-2.9754.69-1.3507-1.386-3.6221-1.386-3.6221.107-1.0392.606 0 1.366 1.1272.556.8294.948 2.0514.948 2.4204 0 .6736.08 2.0649-1.42 2.7047zm11.202 3.3647c-.743.0136-1.479.1152-2.209.3419-.332-.1353-.61-.2877-.804-.4603-2.146-1.8855-1.798-3.7981-1.46-3.4257 0 0 1.152 2.1698 4.473 3.5441z" fill="#36563d"/><path d="m97.6162 8.99514c.0034.0711 0 .14219-.0034.21327-.231 3.11769-.9039 3.60179-1.7208 5.23679-.0301.0473-.0569.0981-.087.1421-.2645.4367-.4955.7955-.5993.958-.2611-.0034-.4888-.0914-.6495-.3588-.3281-.5518-.0569-1.1205.0703-1.7366.0502-.2335.077-.4773.0402-.7278.0033-.3351-.2243-3.21919-.3783-4.47505-.5022-4.08243-.1641-4.32955.164-4.56988.2076-.15233.4821-.1862.7232-.08802.3013.12525 1.5199 1.48607 2.1125 3.32756.2109.64316.3415 1.34726.3281 2.07843z" fill="#70a83f"/><path d="m83.8852 39.7894c.2677-.1527.4405-.5227.1612-.72-.2307-.1506-.7276-.4559-1.1431-.6712-.3819-.2215-1.129-.6071-2.5014-.6095-1.7599 0-3.3316 1.4251-3.4563 1.706-.064.1444-.0733.303-.0257.4478.2447.7691 1.7266.3357 2.8851.1909.7784-.1334 2.4373-.3377 2.6109-.345.549-.0874.9982.3035 1.4693.001z" fill="#70a83f"/><path d="m100.911 39.2173c-.097.0338-.194.0846-.292.1489-.093.0576-.184.1287-.274.2099-.124.1016-1.2087 1.1577-1.6941 1.6756-1.3693 1.3981-1.6171 1.6892-2.1829 1.4996-.1305-.0643-.2276-.1726-.2745-.308-.1105-.308.2042-2.004 1.3827-2.9721.0368-.0339.0737-.0643.1105-.0914 1.3793-.9918 1.8514-.9072 2.8053-1.1442.389-.0609.579-.0948.787-.1218.382.3757.121.9342-.368 1.1035z" fill="#70a83f"/><path d="m122.913 42.0303c-.398.9208-1.135.2979-2.581-.8767-.245-.2065-.619-.4976-.971-.7684-.435-.3352-.837-.6364-.904-.6804-.214-.149-.418-.2472-.613-.2945-.418-.0847-.776-.501-.586-.8937l.088-.1557.174.0067s.391.0102.602.0204c1.001.1184 1.457-.0237 2.94.7887.174.1015.335.2166.482.3419 1.024.8666 1.433 2.224 1.369 2.5117z" fill="#70a83f"/><path d="m145.843 33.6217c-.07.1896-.164.4503-3.338 1.0799-.652.1286-1.821.3994-2.654.5991-.479.1151-.851.2099-.948.2404-.445.1252-.76.2809-.978.4197-.03.0204-.06.0407-.087.061-.442.3114-.87.1963-.944.0507.057-.0677.134-.1489.225-.2437.137-.1422.301-.3114.472-.4807.177-.1794.365-.3588.532-.5145.459-.4434 1.118-1.1002 2.889-1.7501 2.163-.7887 4.6.0643 4.754.2166.091.0881.117.2065.077.3216z" fill="#70a83f"/><path d="m112.561 37.4503c-.053.1557-.107.3013-.16.4367-.553 1.4319-1.021 1.6857-1.684 2.4609-.184.1828-.502.4875-.502.4875-.238.2132-.553-.0034-.637-.2878-.083-.2538-.026-.5483.151-.8124.127-.1896.228-.4299.291-.7108.007-.0204.014-.0576.024-.1084.09-.4265.351-1.855.452-2.5693.331-2.3797.556-2.637.887-2.7757.187-.0813.415-.0542.576.0643.241.176 1.175 2.0277.602 3.815z" fill="#70a83f"/><path d="m86.7757 14.2183c-.0603.3182-.1072.5518-.1306.7042-.0033.0203-.01.044-.0167.0677l-.9575-.7143c-.0101-.0305-.0201-.0643-.0335-.0948-.0636-.1862-.7399-1.7636-1.068-2.4373-1.0613-2.19688-.914-2.39322-.7734-2.58616.0201-.03047.0469-.05417.0737-.07787.087-.07446.2008-.10832.3147-.10155.2712.02031 1.9887 1.04938 2.4507 2.70128.3716 1.3304.2276 2.0886.1406 2.5388z" fill="#36563d"/><path d="m126.927 14.4113c-.14-.0169-.281-.0338-.391-.044-.231-.0406-.563-.0914-.965-.1523l-.043-.0068c-.65-.0982-1.738-.2607-3.248-1.3202-1.951-1.3676-2.176-3.99779-2.015-4.37015.07-.16586.204-.30466.372-.38929.05-.02707.103-.04401.157-.05754.382-.10155.767-.05079 2.156 1.30664.238.23018.509.50101.814.81914.314.3318.82.8193 1.289 1.2695.565.5382 1.081 1.0155 1.175 1.09.093.0812.187.1523.281.2132 0 .0068.003.0136.003.0203.064.3589.188.8734.415 1.6215z" fill="#70a83f"/></g></svg>